<?xml version="1.0" encoding="UTF-8" standalone="no"?>
<!DOCTYPE svg PUBLIC "-//W3C//DTD SVG 1.1//EN"
 "http://www.w3.org/Graphics/SVG/1.1/DTD/svg11.dtd">
<!-- Generated by graphviz version 2.40.1 (20161225.0304)
 -->
<!-- Title: G Pages: 1 -->
<svg width="497pt" height="238pt"
 viewBox="0.00 0.00 496.72 238.00" xmlns="http://www.w3.org/2000/svg" xmlns:xlink="http://www.w3.org/1999/xlink">
<g id="graph0" class="graph" transform="scale(1 1) rotate(0) translate(4 234)">
<title>G</title>
<polygon fill="#ffffff" stroke="transparent" points="-4,4 -4,-234 492.7171,-234 492.7171,4 -4,4"/>
<g id="clust1" class="cluster">
<title>cluster_Global</title>
<path fill="none" stroke="#c0c0c0" d="M253.2859,-8C253.2859,-8 468.7171,-8 468.7171,-8 474.7171,-8 480.7171,-14 480.7171,-20 480.7171,-20 480.7171,-210 480.7171,-210 480.7171,-216 474.7171,-222 468.7171,-222 468.7171,-222 253.2859,-222 253.2859,-222 247.2859,-222 241.2859,-216 241.2859,-210 241.2859,-210 241.2859,-20 241.2859,-20 241.2859,-14 247.2859,-8 253.2859,-8"/>
<text text-anchor="middle" x="361.0015" y="-209.2" font-family="Times,serif" font-size="11.00" fill="#c0c0c0">Global</text>
</g>
<g id="clust2" class="cluster">
<title>cluster_\FortAwesome</title>
<path fill="none" stroke="#c0c0c0" d="M261.2859,-16C261.2859,-16 460.7171,-16 460.7171,-16 466.7171,-16 472.7171,-22 472.7171,-28 472.7171,-28 472.7171,-183 472.7171,-183 472.7171,-189 466.7171,-195 460.7171,-195 460.7171,-195 261.2859,-195 261.2859,-195 255.2859,-195 249.2859,-189 249.2859,-183 249.2859,-183 249.2859,-28 249.2859,-28 249.2859,-22 255.2859,-16 261.2859,-16"/>
<text text-anchor="middle" x="361.0015" y="-182.2" font-family="Times,serif" font-size="11.00" fill="#c0c0c0">FortAwesome</text>
</g>
<!-- \\FortAwesome\\FontAwesome_Release_Provider -->
<g id="node1" class="node">
<title>\\FortAwesome\\FontAwesome_Release_Provider</title>
<polygon fill="none" stroke="#000000" points="461.3316,-168 260.6713,-168 260.6713,-132 461.3316,-132 461.3316,-168"/>
<text text-anchor="middle" x="361.0015" y="-146.7" font-family="Courier,monospace" font-size="11.00" fill="#000000">FontAwesome_Release_Provider</text>
</g>
<!-- \\FortAwesome\\FontAwesome -->
<g id="node2" class="node">
<title>\\FortAwesome\\FontAwesome</title>
<polygon fill="none" stroke="#000000" points="405.1142,-114 316.8888,-114 316.8888,-78 405.1142,-78 405.1142,-114"/>
<text text-anchor="middle" x="361.0015" y="-92.7" font-family="Courier,monospace" font-size="11.00" fill="#000000">FontAwesome</text>
</g>
<!-- \\FortAwesome\\FontAwesome_Config_Controller -->
<g id="node3" class="node">
<title>\\FortAwesome\\FontAwesome_Config_Controller</title>
<polygon fill="none" stroke="#000000" points="464.9331,-60 257.0699,-60 257.0699,-24 464.9331,-24 464.9331,-60"/>
<text text-anchor="middle" x="361.0015" y="-38.7" font-family="Courier,monospace" font-size="11.00" fill="#000000">FontAwesome_Config_Controller</text>
</g>
<!-- \\WP_REST_Controller -->
<g id="node4" class="node">
<title>\\WP_REST_Controller</title>
<ellipse fill="none" stroke="#000000" cx="92.643" cy="-42" rx="92.7861" ry="18"/>
<text text-anchor="middle" x="92.643" y="-37.8" font-family="Times,serif" font-size="14.00" fill="#c0c0c0">\WP_REST_Controller</text>
</g>
<!-- \\FortAwesome\\FontAwesome_Config_Controller&#45;&gt;\\WP_REST_Controller -->
<g id="edge1" class="edge">
<title>\\FortAwesome\\FontAwesome_Config_Controller&#45;&gt;\\WP_REST_Controller</title>
<path fill="none" stroke="#000000" d="M257.2471,-42C237.0591,-42 215.9011,-42 195.7346,-42"/>
<polygon fill="none" stroke="#000000" points="195.6076,-38.5001 185.6075,-42 195.6075,-45.5001 195.6076,-38.5001"/>
</g>
</g>
</svg>
