<?xml version="1.0" encoding="UTF-8" standalone="no"?>
<!DOCTYPE svg PUBLIC "-//W3C//DTD SVG 1.1//EN"
 "http://www.w3.org/Graphics/SVG/1.1/DTD/svg11.dtd">
<!-- Generated by graphviz version 2.40.1 (20161225.0304)
 -->
<!-- Title: G Pages: 1 -->
<svg width="489pt" height="365pt"
 viewBox="0.00 0.00 488.72 365.00" xmlns="http://www.w3.org/2000/svg" xmlns:xlink="http://www.w3.org/1999/xlink">
<g id="graph0" class="graph" transform="scale(1 1) rotate(0) translate(4 361)">
<title>G</title>
<polygon fill="#ffffff" stroke="transparent" points="-4,4 -4,-361 484.7171,-361 484.7171,4 -4,4"/>
<g id="clust1" class="cluster">
<title>cluster_Global</title>
<path fill="none" stroke="#c0c0c0" d="M261.2859,-8C261.2859,-8 460.7171,-8 460.7171,-8 466.7171,-8 472.7171,-14 472.7171,-20 472.7171,-20 472.7171,-337 472.7171,-337 472.7171,-343 466.7171,-349 460.7171,-349 460.7171,-349 261.2859,-349 261.2859,-349 255.2859,-349 249.2859,-343 249.2859,-337 249.2859,-337 249.2859,-20 249.2859,-20 249.2859,-14 255.2859,-8 261.2859,-8"/>
<text text-anchor="middle" x="361.0015" y="-336.2" font-family="Times,serif" font-size="11.00" fill="#c0c0c0">Global</text>
</g>
<!-- \\FontAwesome_Release_Provider -->
<g id="node1" class="node">
<title>\\FontAwesome_Release_Provider</title>
<polygon fill="none" stroke="#000000" points="461.3316,-322 260.6713,-322 260.6713,-286 461.3316,-286 461.3316,-322"/>
<text text-anchor="middle" x="361.0015" y="-300.7" font-family="Courier,monospace" font-size="11.00" fill="#000000">FontAwesome_Release_Provider</text>
</g>
<!-- \\FontAwesome_Activator -->
<g id="node2" class="node">
<title>\\FontAwesome_Activator</title>
<polygon fill="none" stroke="#000000" points="438.1245,-268 283.8785,-268 283.8785,-232 438.1245,-232 438.1245,-268"/>
<text text-anchor="middle" x="361.0015" y="-246.7" font-family="Courier,monospace" font-size="11.00" fill="#000000">FontAwesome_Activator</text>
</g>
<!-- \\FontAwesome_Deactivator -->
<g id="node3" class="node">
<title>\\FontAwesome_Deactivator</title>
<polygon fill="none" stroke="#000000" points="444.8263,-214 277.1767,-214 277.1767,-178 444.8263,-178 444.8263,-214"/>
<text text-anchor="middle" x="361.0015" y="-192.7" font-family="Courier,monospace" font-size="11.00" fill="#000000">FontAwesome_Deactivator</text>
</g>
<!-- \\FontAwesome -->
<g id="node4" class="node">
<title>\\FontAwesome</title>
<polygon fill="none" stroke="#000000" points="405.1142,-160 316.8888,-160 316.8888,-124 405.1142,-124 405.1142,-160"/>
<text text-anchor="middle" x="361.0015" y="-138.7" font-family="Courier,monospace" font-size="11.00" fill="#000000">FontAwesome</text>
</g>
<!-- \\FontAwesome_Config_Controller -->
<g id="node5" class="node">
<title>\\FontAwesome_Config_Controller</title>
<polygon fill="none" stroke="#000000" points="464.9331,-106 257.0699,-106 257.0699,-70 464.9331,-70 464.9331,-106"/>
<text text-anchor="middle" x="361.0015" y="-84.7" font-family="Courier,monospace" font-size="11.00" fill="#000000">FontAwesome_Config_Controller</text>
</g>
<!-- \\WP_REST_Controller -->
<g id="node7" class="node">
<title>\\WP_REST_Controller</title>
<ellipse fill="none" stroke="#000000" cx="92.643" cy="-88" rx="92.7861" ry="18"/>
<text text-anchor="middle" x="92.643" y="-83.8" font-family="Times,serif" font-size="14.00" fill="#c0c0c0">\WP_REST_Controller</text>
</g>
<!-- \\FontAwesome_Config_Controller&#45;&gt;\\WP_REST_Controller -->
<g id="edge1" class="edge">
<title>\\FontAwesome_Config_Controller&#45;&gt;\\WP_REST_Controller</title>
<path fill="none" stroke="#000000" d="M257.2471,-88C237.0591,-88 215.9011,-88 195.7346,-88"/>
<polygon fill="none" stroke="#000000" points="195.6076,-84.5001 185.6075,-88 195.6075,-91.5001 195.6076,-84.5001"/>
</g>
<!-- \\FontAwesome_Resource -->
<g id="node6" class="node">
<title>\\FontAwesome_Resource</title>
<polygon fill="none" stroke="#000000" points="435.023,-52 286.98,-52 286.98,-16 435.023,-16 435.023,-52"/>
<text text-anchor="middle" x="361.0015" y="-30.7" font-family="Courier,monospace" font-size="11.00" fill="#000000">FontAwesome_Resource</text>
</g>
</g>
</svg>
