<?xml version="1.0" encoding="UTF-8" standalone="no"?>
<!DOCTYPE svg PUBLIC "-//W3C//DTD SVG 1.1//EN"
 "http://www.w3.org/Graphics/SVG/1.1/DTD/svg11.dtd">
<!-- Generated by graphviz version 2.40.1 (20161225.0304)
 -->
<!-- Title: G Pages: 1 -->
<svg width="939pt" height="1254pt"
 viewBox="0.00 0.00 938.61 1254.00" xmlns="http://www.w3.org/2000/svg" xmlns:xlink="http://www.w3.org/1999/xlink">
<g id="graph0" class="graph" transform="scale(1 1) rotate(0) translate(4 1250)">
<title>G</title>
<polygon fill="#ffffff" stroke="transparent" points="-4,4 -4,-1250 934.607,-1250 934.607,4 -4,4"/>
<g id="clust1" class="cluster">
<title>cluster_Global</title>
<path fill="none" stroke="#c0c0c0" d="M20,-8C20,-8 910.607,-8 910.607,-8 916.607,-8 922.607,-14 922.607,-20 922.607,-20 922.607,-1226 922.607,-1226 922.607,-1232 916.607,-1238 910.607,-1238 910.607,-1238 20,-1238 20,-1238 14,-1238 8,-1232 8,-1226 8,-1226 8,-20 8,-20 8,-14 14,-8 20,-8"/>
<text text-anchor="middle" x="465.3035" y="-1225.2" font-family="Times,serif" font-size="11.00" fill="#c0c0c0">Global</text>
</g>
<g id="clust2" class="cluster">
<title>cluster_\FortAwesome</title>
<path fill="none" stroke="#c0c0c0" d="M183.92,-16C183.92,-16 902.607,-16 902.607,-16 908.607,-16 914.607,-22 914.607,-28 914.607,-28 914.607,-1101 914.607,-1101 914.607,-1107 908.607,-1113 902.607,-1113 902.607,-1113 183.92,-1113 183.92,-1113 177.92,-1113 171.92,-1107 171.92,-1101 171.92,-1101 171.92,-28 171.92,-28 171.92,-22 177.92,-16 183.92,-16"/>
<text text-anchor="middle" x="543.2635" y="-1100.2" font-family="Times,serif" font-size="11.00" fill="#c0c0c0">FortAwesome</text>
</g>
<!-- \\FortAwesome\\FontAwesome_Loader -->
<g id="node1" class="node">
<title>\\FortAwesome\\FontAwesome_Loader</title>
<polygon fill="none" stroke="#000000" points="857.0087,-1086 722.3698,-1086 722.3698,-1050 857.0087,-1050 857.0087,-1086"/>
<text text-anchor="middle" x="789.6893" y="-1064.7" font-family="Courier,monospace" font-size="11.00" fill="#000000">FontAwesome_Loader</text>
</g>
<!-- \\FortAwesome\\FontAwesome_Exception -->
<g id="node2" class="node">
<title>\\FortAwesome\\FontAwesome_Exception</title>
<polygon fill="none" stroke="#000000" points="334.3543,-627 180.1082,-627 180.1082,-591 334.3543,-591 334.3543,-627"/>
<text text-anchor="start" x="224.2259" y="-611.2" font-family="Courier,monospace" font-size="11.00" fill="#000000">«abstract»</text>
<text text-anchor="start" x="187.92" y="-600.2" font-family="Courier,monospace" font-size="11.00" fill="#000000">FontAwesome_Exception</text>
</g>
<!-- Exception -->
<g id="node24" class="node">
<title>Exception</title>
<ellipse fill="none" stroke="#000000" cx="61.96" cy="-609" rx="45.92" ry="18"/>
<text text-anchor="middle" x="61.96" y="-604.8" font-family="Times,serif" font-size="14.00" fill="#c0c0c0">Exception</text>
</g>
<!-- \\FortAwesome\\FontAwesome_Exception&#45;&gt;Exception -->
<g id="edge1" class="edge">
<title>\\FortAwesome\\FontAwesome_Exception&#45;&gt;Exception</title>
<path fill="none" stroke="#000000" d="M180.0549,-609C159.3615,-609 137.3843,-609 118.0711,-609"/>
<polygon fill="none" stroke="#000000" points="117.9391,-605.5001 107.9391,-609 117.9391,-612.5001 117.9391,-605.5001"/>
</g>
<!-- \\FortAwesome\\FontAwesome_ServerException -->
<g id="node3" class="node">
<title>\\FortAwesome\\FontAwesome_ServerException</title>
<polygon fill="none" stroke="#000000" points="600.8862,-438 406.4279,-438 406.4279,-402 600.8862,-402 600.8862,-438"/>
<text text-anchor="start" x="470.6517" y="-422.2" font-family="Courier,monospace" font-size="11.00" fill="#000000">«abstract»</text>
<text text-anchor="start" x="414.5425" y="-411.2" font-family="Courier,monospace" font-size="11.00" fill="#000000">FontAwesome_ServerException</text>
</g>
<!-- \\FortAwesome\\FontAwesome_ServerException&#45;&gt;\\FortAwesome\\FontAwesome_Exception -->
<g id="edge2" class="edge">
<title>\\FortAwesome\\FontAwesome_ServerException&#45;&gt;\\FortAwesome\\FontAwesome_Exception</title>
<path fill="none" stroke="#000000" d="M480.0287,-438.1221C435.5025,-472.2721 339.1527,-546.1691 289.008,-584.6284"/>
<polygon fill="none" stroke="#000000" points="286.593,-582.0697 280.7881,-590.9328 290.8531,-587.6241 286.593,-582.0697"/>
</g>
<!-- \\FortAwesome\\FontAwesome_ClientException -->
<g id="node4" class="node">
<title>\\FortAwesome\\FontAwesome_ClientException</title>
<polygon fill="none" stroke="#000000" points="600.8862,-816 406.4279,-816 406.4279,-780 600.8862,-780 600.8862,-816"/>
<text text-anchor="start" x="470.6517" y="-800.2" font-family="Courier,monospace" font-size="11.00" fill="#000000">«abstract»</text>
<text text-anchor="start" x="414.5425" y="-789.2" font-family="Courier,monospace" font-size="11.00" fill="#000000">FontAwesome_ClientException</text>
</g>
<!-- \\FortAwesome\\FontAwesome_ClientException&#45;&gt;\\FortAwesome\\FontAwesome_Exception -->
<g id="edge3" class="edge">
<title>\\FortAwesome\\FontAwesome_ClientException&#45;&gt;\\FortAwesome\\FontAwesome_Exception</title>
<path fill="none" stroke="#000000" d="M480.0287,-779.8779C435.5025,-745.7279 339.1527,-671.8309 289.008,-633.3716"/>
<polygon fill="none" stroke="#000000" points="290.8531,-630.3759 280.7881,-627.0672 286.593,-635.9303 290.8531,-630.3759"/>
</g>
<!-- \\FortAwesome\\ApiTokenMissingException -->
<g id="node5" class="node">
<title>\\FortAwesome\\ApiTokenMissingException</title>
<polygon fill="none" stroke="#000000" points="877.1156,-762 702.263,-762 702.263,-726 877.1156,-726 877.1156,-762"/>
<text text-anchor="middle" x="789.6893" y="-740.7" font-family="Courier,monospace" font-size="11.00" fill="#000000">ApiTokenMissingException</text>
</g>
<!-- \\FortAwesome\\ApiTokenMissingException&#45;&gt;\\FortAwesome\\FontAwesome_ClientException -->
<g id="edge4" class="edge">
<title>\\FortAwesome\\ApiTokenMissingException&#45;&gt;\\FortAwesome\\FontAwesome_ClientException</title>
<path fill="none" stroke="#000000" d="M702.316,-760.4952C672.889,-766.0507 639.7385,-772.3092 609.071,-778.0989"/>
<polygon fill="none" stroke="#000000" points="608.3863,-774.6663 599.2092,-779.9607 609.6849,-781.5448 608.3863,-774.6663"/>
</g>
<!-- \\FortAwesome\\ApiTokenEndpointRequestException -->
<g id="node6" class="node">
<title>\\FortAwesome\\ApiTokenEndpointRequestException</title>
<polygon fill="none" stroke="#000000" points="903.4238,-330 675.9548,-330 675.9548,-294 903.4238,-294 903.4238,-330"/>
<text text-anchor="middle" x="789.6893" y="-308.7" font-family="Courier,monospace" font-size="11.00" fill="#000000">ApiTokenEndpointRequestException</text>
</g>
<!-- \\FortAwesome\\ApiTokenEndpointRequestException&#45;&gt;\\FortAwesome\\FontAwesome_ServerException -->
<g id="edge5" class="edge">
<title>\\FortAwesome\\ApiTokenEndpointRequestException&#45;&gt;\\FortAwesome\\FontAwesome_ServerException</title>
<path fill="none" stroke="#000000" d="M701.9388,-330.0485C692.0098,-332.7435 682.1109,-335.7297 672.7715,-339 627.5554,-354.8328 578.4389,-379.2299 544.8487,-397.1126"/>
<polygon fill="none" stroke="#000000" points="542.9562,-394.1561 535.8024,-401.9711 546.2683,-400.323 542.9562,-394.1561"/>
</g>
<!-- \\FortAwesome\\ApiTokenInvalidException -->
<g id="node7" class="node">
<title>\\FortAwesome\\ApiTokenInvalidException</title>
<polygon fill="none" stroke="#000000" points="877.1156,-924 702.263,-924 702.263,-888 877.1156,-888 877.1156,-924"/>
<text text-anchor="middle" x="789.6893" y="-902.7" font-family="Courier,monospace" font-size="11.00" fill="#000000">ApiTokenInvalidException</text>
</g>
<!-- \\FortAwesome\\ApiTokenInvalidException&#45;&gt;\\FortAwesome\\FontAwesome_ClientException -->
<g id="edge6" class="edge">
<title>\\FortAwesome\\ApiTokenInvalidException&#45;&gt;\\FortAwesome\\FontAwesome_ClientException</title>
<path fill="none" stroke="#000000" d="M702.261,-890.5151C692.0739,-887.3462 682.0267,-883.5477 672.7715,-879 638.2512,-862.0378 637.8122,-841.3224 601.1259,-820.7977"/>
<polygon fill="none" stroke="#000000" points="602.6387,-817.6397 592.1497,-816.1458 599.4178,-823.8547 602.6387,-817.6397"/>
</g>
<!-- \\FortAwesome\\ApiTokenEndpointResponseException -->
<g id="node8" class="node">
<title>\\FortAwesome\\ApiTokenEndpointResponseException</title>
<polygon fill="none" stroke="#000000" points="906.5248,-276 672.8538,-276 672.8538,-240 906.5248,-240 906.5248,-276"/>
<text text-anchor="middle" x="789.6893" y="-254.7" font-family="Courier,monospace" font-size="11.00" fill="#000000">ApiTokenEndpointResponseException</text>
</g>
<!-- \\FortAwesome\\ApiTokenEndpointResponseException&#45;&gt;\\FortAwesome\\FontAwesome_ServerException -->
<g id="edge7" class="edge">
<title>\\FortAwesome\\ApiTokenEndpointResponseException&#45;&gt;\\FortAwesome\\FontAwesome_ServerException</title>
<path fill="none" stroke="#000000" d="M694.934,-276.0005C687.2865,-278.6163 679.8049,-281.5997 672.7715,-285 615.0883,-312.887 559.2055,-363.5332 528.3253,-394.2375"/>
<polygon fill="none" stroke="#000000" points="525.5892,-392.0257 521.0272,-401.5881 530.5567,-396.9577 525.5892,-392.0257"/>
</g>
<!-- \\FortAwesome\\AccessTokenStorageException -->
<g id="node9" class="node">
<title>\\FortAwesome\\AccessTokenStorageException</title>
<polygon fill="none" stroke="#000000" points="886.9184,-222 692.4601,-222 692.4601,-186 886.9184,-186 886.9184,-222"/>
<text text-anchor="middle" x="789.6893" y="-200.7" font-family="Courier,monospace" font-size="11.00" fill="#000000">AccessTokenStorageException</text>
</g>
<!-- \\FortAwesome\\AccessTokenStorageException&#45;&gt;\\FortAwesome\\FontAwesome_ServerException -->
<g id="edge8" class="edge">
<title>\\FortAwesome\\AccessTokenStorageException&#45;&gt;\\FortAwesome\\FontAwesome_ServerException</title>
<path fill="none" stroke="#000000" d="M692.4646,-221.4465C685.6012,-224.1803 678.9584,-227.3424 672.7715,-231 603.0315,-272.2292 546.1783,-351.8284 519.7147,-393.3422"/>
<polygon fill="none" stroke="#000000" points="516.7362,-391.5039 514.3871,-401.8351 522.6661,-395.2237 516.7362,-391.5039"/>
</g>
<!-- \\FortAwesome\\ConfigSchemaException -->
<g id="node10" class="node">
<title>\\FortAwesome\\ConfigSchemaException</title>
<polygon fill="none" stroke="#000000" points="866.8123,-870 712.5663,-870 712.5663,-834 866.8123,-834 866.8123,-870"/>
<text text-anchor="middle" x="789.6893" y="-848.7" font-family="Courier,monospace" font-size="11.00" fill="#000000">ConfigSchemaException</text>
</g>
<!-- \\FortAwesome\\ConfigSchemaException&#45;&gt;\\FortAwesome\\FontAwesome_ClientException -->
<g id="edge9" class="edge">
<title>\\FortAwesome\\ConfigSchemaException&#45;&gt;\\FortAwesome\\FontAwesome_ClientException</title>
<path fill="none" stroke="#000000" d="M712.2848,-837.3868C680.5869,-831.4026 643.3989,-824.3819 609.268,-817.9383"/>
<polygon fill="none" stroke="#000000" points="609.7339,-814.4645 599.2581,-816.0485 608.4352,-821.343 609.7339,-814.4645"/>
</g>
<!-- \\FortAwesome\\PreferenceRegistrationException -->
<g id="node11" class="node">
<title>\\FortAwesome\\PreferenceRegistrationException</title>
<polygon fill="none" stroke="#000000" points="899.8229,-168 679.5557,-168 679.5557,-132 899.8229,-132 899.8229,-168"/>
<text text-anchor="middle" x="789.6893" y="-146.7" font-family="Courier,monospace" font-size="11.00" fill="#000000">PreferenceRegistrationException</text>
</g>
<!-- \\FortAwesome\\PreferenceRegistrationException&#45;&gt;\\FortAwesome\\FontAwesome_ServerException -->
<g id="edge10" class="edge">
<title>\\FortAwesome\\PreferenceRegistrationException&#45;&gt;\\FortAwesome\\FontAwesome_ServerException</title>
<path fill="none" stroke="#000000" d="M688.7353,-168.053C683.1455,-170.6493 677.7752,-173.6144 672.7715,-177 590.9589,-232.3577 536.6723,-341.5523 514.6919,-392.5501"/>
<polygon fill="none" stroke="#000000" points="511.3925,-391.3665 510.7279,-401.9405 517.8414,-394.0888 511.3925,-391.3665"/>
</g>
<!-- \\FortAwesome\\ApiRequestException -->
<g id="node12" class="node">
<title>\\FortAwesome\\ApiRequestException</title>
<polygon fill="none" stroke="#000000" points="860.6103,-60 718.7682,-60 718.7682,-24 860.6103,-24 860.6103,-60"/>
<text text-anchor="middle" x="789.6893" y="-38.7" font-family="Courier,monospace" font-size="11.00" fill="#000000">ApiRequestException</text>
</g>
<!-- \\FortAwesome\\ApiRequestException&#45;&gt;\\FortAwesome\\FontAwesome_ServerException -->
<g id="edge11" class="edge">
<title>\\FortAwesome\\ApiRequestException&#45;&gt;\\FortAwesome\\FontAwesome_ServerException</title>
<path fill="none" stroke="#000000" d="M718.957,-47.8302C702.4966,-51.8915 685.9519,-58.4635 672.7715,-69 565.6981,-154.5955 522.1692,-324.6365 508.6781,-391.7818"/>
<polygon fill="none" stroke="#000000" points="505.233,-391.1627 506.7656,-401.6461 512.105,-392.4951 505.233,-391.1627"/>
</g>
<!-- \\FortAwesome\\ApiResponseException -->
<g id="node13" class="node">
<title>\\FortAwesome\\ApiResponseException</title>
<polygon fill="none" stroke="#000000" points="863.7108,-708 715.6678,-708 715.6678,-672 863.7108,-672 863.7108,-708"/>
<text text-anchor="middle" x="789.6893" y="-686.7" font-family="Courier,monospace" font-size="11.00" fill="#000000">ApiResponseException</text>
</g>
<!-- \\FortAwesome\\ApiResponseException&#45;&gt;\\FortAwesome\\FontAwesome_ServerException -->
<g id="edge12" class="edge">
<title>\\FortAwesome\\ApiResponseException&#45;&gt;\\FortAwesome\\FontAwesome_ServerException</title>
<path fill="none" stroke="#000000" d="M715.4854,-681.4816C700.4904,-677.4601 685.4531,-671.5808 672.7715,-663 590.9589,-607.6423 536.6723,-498.4477 514.6919,-447.4499"/>
<polygon fill="none" stroke="#000000" points="517.8414,-445.9112 510.7279,-438.0595 511.3925,-448.6335 517.8414,-445.9112"/>
</g>
<!-- \\FortAwesome\\ReleaseProviderStorageException -->
<g id="node14" class="node">
<title>\\FortAwesome\\ReleaseProviderStorageException</title>
<polygon fill="none" stroke="#000000" points="899.8229,-654 679.5557,-654 679.5557,-618 899.8229,-618 899.8229,-654"/>
<text text-anchor="middle" x="789.6893" y="-632.7" font-family="Courier,monospace" font-size="11.00" fill="#000000">ReleaseProviderStorageException</text>
</g>
<!-- \\FortAwesome\\ReleaseProviderStorageException&#45;&gt;\\FortAwesome\\FontAwesome_ServerException -->
<g id="edge13" class="edge">
<title>\\FortAwesome\\ReleaseProviderStorageException&#45;&gt;\\FortAwesome\\FontAwesome_ServerException</title>
<path fill="none" stroke="#000000" d="M690.9761,-617.9524C684.6409,-615.3588 678.5101,-612.3925 672.7715,-609 603.0315,-567.7708 546.1783,-488.1716 519.7147,-446.6578"/>
<polygon fill="none" stroke="#000000" points="522.6661,-444.7763 514.3871,-438.1649 516.7362,-448.4961 522.6661,-444.7763"/>
</g>
<!-- \\FortAwesome\\ReleaseMetadataMissingException -->
<g id="node15" class="node">
<title>\\FortAwesome\\ReleaseMetadataMissingException</title>
<polygon fill="none" stroke="#000000" points="899.8229,-600 679.5557,-600 679.5557,-564 899.8229,-564 899.8229,-600"/>
<text text-anchor="middle" x="789.6893" y="-578.7" font-family="Courier,monospace" font-size="11.00" fill="#000000">ReleaseMetadataMissingException</text>
</g>
<!-- \\FortAwesome\\ReleaseMetadataMissingException&#45;&gt;\\FortAwesome\\FontAwesome_ServerException -->
<g id="edge14" class="edge">
<title>\\FortAwesome\\ReleaseMetadataMissingException&#45;&gt;\\FortAwesome\\FontAwesome_ServerException</title>
<path fill="none" stroke="#000000" d="M694.934,-563.9995C687.2865,-561.3837 679.8049,-558.4003 672.7715,-555 615.0883,-527.113 559.2055,-476.4668 528.3253,-445.7625"/>
<polygon fill="none" stroke="#000000" points="530.5567,-443.0423 521.0272,-438.4119 525.5892,-447.9743 530.5567,-443.0423"/>
</g>
<!-- \\FortAwesome\\ConfigCorruptionException -->
<g id="node16" class="node">
<title>\\FortAwesome\\ConfigCorruptionException</title>
<polygon fill="none" stroke="#000000" points="880.2161,-546 699.1624,-546 699.1624,-510 880.2161,-510 880.2161,-546"/>
<text text-anchor="middle" x="789.6893" y="-524.7" font-family="Courier,monospace" font-size="11.00" fill="#000000">ConfigCorruptionException</text>
</g>
<!-- \\FortAwesome\\ConfigCorruptionException&#45;&gt;\\FortAwesome\\FontAwesome_ServerException -->
<g id="edge15" class="edge">
<title>\\FortAwesome\\ConfigCorruptionException&#45;&gt;\\FortAwesome\\FontAwesome_ServerException</title>
<path fill="none" stroke="#000000" d="M701.9388,-509.9515C692.0098,-507.2565 682.1109,-504.2703 672.7715,-501 627.5554,-485.1672 578.4389,-460.7701 544.8487,-442.8874"/>
<polygon fill="none" stroke="#000000" points="546.2683,-439.677 535.8024,-438.0289 542.9562,-445.8439 546.2683,-439.677"/>
</g>
<!-- \\FortAwesome\\ConflictDetectionSchemaException -->
<g id="node17" class="node">
<title>\\FortAwesome\\ConflictDetectionSchemaException</title>
<polygon fill="none" stroke="#000000" points="903.4238,-816 675.9548,-816 675.9548,-780 903.4238,-780 903.4238,-816"/>
<text text-anchor="middle" x="789.6893" y="-794.7" font-family="Courier,monospace" font-size="11.00" fill="#000000">ConflictDetectionSchemaException</text>
</g>
<!-- \\FortAwesome\\ConflictDetectionSchemaException&#45;&gt;\\FortAwesome\\FontAwesome_ClientException -->
<g id="edge16" class="edge">
<title>\\FortAwesome\\ConflictDetectionSchemaException&#45;&gt;\\FortAwesome\\FontAwesome_ClientException</title>
<path fill="none" stroke="#000000" d="M675.8199,-798C654.5325,-798 632.3453,-798 611.2548,-798"/>
<polygon fill="none" stroke="#000000" points="610.9982,-794.5001 600.9981,-798 610.9981,-801.5001 610.9982,-794.5001"/>
</g>
<!-- \\FortAwesome\\ConflictDetectionStorageException -->
<g id="node18" class="node">
<title>\\FortAwesome\\ConflictDetectionStorageException</title>
<polygon fill="none" stroke="#000000" points="906.5248,-492 672.8538,-492 672.8538,-456 906.5248,-456 906.5248,-492"/>
<text text-anchor="middle" x="789.6893" y="-470.7" font-family="Courier,monospace" font-size="11.00" fill="#000000">ConflictDetectionStorageException</text>
</g>
<!-- \\FortAwesome\\ConflictDetectionStorageException&#45;&gt;\\FortAwesome\\FontAwesome_ServerException -->
<g id="edge17" class="edge">
<title>\\FortAwesome\\ConflictDetectionStorageException&#45;&gt;\\FortAwesome\\FontAwesome_ServerException</title>
<path fill="none" stroke="#000000" d="M694.047,-455.9437C666.8542,-450.81 637.0855,-445.1899 609.3337,-439.9507"/>
<polygon fill="none" stroke="#000000" points="609.6849,-436.4552 599.2092,-438.0393 608.3863,-443.3337 609.6849,-436.4552"/>
</g>
<!-- \\FortAwesome\\ClientPreferencesSchemaException -->
<g id="node19" class="node">
<title>\\FortAwesome\\ClientPreferencesSchemaException</title>
<polygon fill="none" stroke="#000000" points="903.4238,-438 675.9548,-438 675.9548,-402 903.4238,-402 903.4238,-438"/>
<text text-anchor="middle" x="789.6893" y="-416.7" font-family="Courier,monospace" font-size="11.00" fill="#000000">ClientPreferencesSchemaException</text>
</g>
<!-- \\FortAwesome\\ClientPreferencesSchemaException&#45;&gt;\\FortAwesome\\FontAwesome_ServerException -->
<g id="edge18" class="edge">
<title>\\FortAwesome\\ClientPreferencesSchemaException&#45;&gt;\\FortAwesome\\FontAwesome_ServerException</title>
<path fill="none" stroke="#000000" d="M675.8199,-420C654.5325,-420 632.3453,-420 611.2548,-420"/>
<polygon fill="none" stroke="#000000" points="610.9982,-416.5001 600.9981,-420 610.9981,-423.5001 610.9982,-416.5001"/>
</g>
<!-- \\FortAwesome\\UpgradeException -->
<g id="node20" class="node">
<title>\\FortAwesome\\UpgradeException</title>
<polygon fill="none" stroke="#000000" points="850.3071,-384 729.0715,-384 729.0715,-348 850.3071,-348 850.3071,-384"/>
<text text-anchor="middle" x="789.6893" y="-362.7" font-family="Courier,monospace" font-size="11.00" fill="#000000">UpgradeException</text>
</g>
<!-- \\FortAwesome\\UpgradeException&#45;&gt;\\FortAwesome\\FontAwesome_ServerException -->
<g id="edge19" class="edge">
<title>\\FortAwesome\\UpgradeException&#45;&gt;\\FortAwesome\\FontAwesome_ServerException</title>
<path fill="none" stroke="#000000" d="M729.0292,-377.452C694.1848,-384.0303 649.4464,-392.4764 609.0272,-400.1072"/>
<polygon fill="none" stroke="#000000" points="608.3024,-396.6821 599.1253,-401.9766 609.601,-403.5606 608.3024,-396.6821"/>
</g>
<!-- \\FortAwesome\\FontAwesome_REST_Response -->
<g id="node21" class="node">
<title>\\FortAwesome\\FontAwesome_REST_Response</title>
<polygon fill="none" stroke="#000000" points="880.2161,-978 699.1624,-978 699.1624,-942 880.2161,-942 880.2161,-978"/>
<text text-anchor="middle" x="789.6893" y="-956.7" font-family="Courier,monospace" font-size="11.00" fill="#000000">FontAwesome_REST_Response</text>
</g>
<!-- WP_REST_Response -->
<g id="node25" class="node">
<title>WP_REST_Response</title>
<ellipse fill="none" stroke="#000000" cx="503.657" cy="-1139" rx="87.9672" ry="18"/>
<text text-anchor="middle" x="503.657" y="-1134.8" font-family="Times,serif" font-size="14.00" fill="#c0c0c0">WP_REST_Response</text>
</g>
<!-- \\FortAwesome\\FontAwesome_REST_Response&#45;&gt;WP_REST_Response -->
<g id="edge20" class="edge">
<title>\\FortAwesome\\FontAwesome_REST_Response&#45;&gt;WP_REST_Response</title>
<path fill="none" stroke="#000000" d="M699.0776,-972.7022C689.6677,-976.3673 680.6731,-981.0432 672.7715,-987 620.0319,-1026.7593 653.5941,-1077.3509 600.7715,-1117 596.559,-1120.162 591.9735,-1122.8829 587.1635,-1125.2231"/>
<polygon fill="none" stroke="#000000" points="585.5011,-1122.127 577.676,-1129.2697 588.2474,-1128.5658 585.5011,-1122.127"/>
</g>
<!-- \\FortAwesome\\FontAwesome -->
<g id="node22" class="node">
<title>\\FortAwesome\\FontAwesome</title>
<polygon fill="none" stroke="#000000" points="833.8019,-114 745.5766,-114 745.5766,-78 833.8019,-78 833.8019,-114"/>
<text text-anchor="middle" x="789.6893" y="-92.7" font-family="Courier,monospace" font-size="11.00" fill="#000000">FontAwesome</text>
</g>
<!-- \\FortAwesome\\FontAwesome_API_Controller -->
<g id="node23" class="node">
<title>\\FortAwesome\\FontAwesome_API_Controller</title>
<polygon fill="none" stroke="#000000" points="883.3176,-1032 696.061,-1032 696.061,-996 883.3176,-996 883.3176,-1032"/>
<text text-anchor="middle" x="789.6893" y="-1010.7" font-family="Courier,monospace" font-size="11.00" fill="#000000">FontAwesome_API_Controller</text>
</g>
<!-- WP_REST_Controller -->
<g id="node26" class="node">
<title>WP_REST_Controller</title>
<ellipse fill="none" stroke="#000000" cx="503.657" cy="-1193" rx="90.3723" ry="18"/>
<text text-anchor="middle" x="503.657" y="-1188.8" font-family="Times,serif" font-size="14.00" fill="#c0c0c0">WP_REST_Controller</text>
</g>
<!-- \\FortAwesome\\FontAwesome_API_Controller&#45;&gt;WP_REST_Controller -->
<g id="edge21" class="edge">
<title>\\FortAwesome\\FontAwesome_API_Controller&#45;&gt;WP_REST_Controller</title>
<path fill="none" stroke="#000000" d="M695.9189,-1028.1398C687.6729,-1031.5657 679.8022,-1035.7918 672.7715,-1041 621.2547,-1079.1633 651.4321,-1126.7071 600.7715,-1166 594.9725,-1170.4978 588.4672,-1174.2466 581.6427,-1177.371"/>
<polygon fill="none" stroke="#000000" points="580.0976,-1174.2218 572.175,-1181.2563 582.7551,-1180.6977 580.0976,-1174.2218"/>
</g>
</g>
</svg>
