<?xml version="1.0" encoding="UTF-8" standalone="no"?>
<!DOCTYPE svg PUBLIC "-//W3C//DTD SVG 1.1//EN"
 "http://www.w3.org/Graphics/SVG/1.1/DTD/svg11.dtd">
<!-- Generated by graphviz version 2.40.1 (20161225.0304)
 -->
<!-- Title: G Pages: 1 -->
<svg width="489pt" height="149pt"
 viewBox="0.00 0.00 488.72 149.00" xmlns="http://www.w3.org/2000/svg" xmlns:xlink="http://www.w3.org/1999/xlink">
<g id="graph0" class="graph" transform="scale(1 1) rotate(0) translate(4 145)">
<title>G</title>
<polygon fill="#ffffff" stroke="transparent" points="-4,4 -4,-145 484.7171,-145 484.7171,4 -4,4"/>
<g id="clust1" class="cluster">
<title>cluster_Global</title>
<path fill="none" stroke="#c0c0c0" d="M261.2859,-8C261.2859,-8 460.7171,-8 460.7171,-8 466.7171,-8 472.7171,-14 472.7171,-20 472.7171,-20 472.7171,-121 472.7171,-121 472.7171,-127 466.7171,-133 460.7171,-133 460.7171,-133 261.2859,-133 261.2859,-133 255.2859,-133 249.2859,-127 249.2859,-121 249.2859,-121 249.2859,-20 249.2859,-20 249.2859,-14 255.2859,-8 261.2859,-8"/>
<text text-anchor="middle" x="361.0015" y="-120.2" font-family="Times,serif" font-size="11.00" fill="#c0c0c0">Global</text>
</g>
<!-- \\FontAwesome_Release_Provider -->
<g id="node1" class="node">
<title>\\FontAwesome_Release_Provider</title>
<polygon fill="none" stroke="#000000" points="461.3316,-106 260.6713,-106 260.6713,-70 461.3316,-70 461.3316,-106"/>
<text text-anchor="middle" x="361.0015" y="-84.7" font-family="Courier,monospace" font-size="11.00" fill="#000000">FontAwesome_Release_Provider</text>
</g>
<!-- \\FontAwesome_Config_Controller -->
<g id="node2" class="node">
<title>\\FontAwesome_Config_Controller</title>
<polygon fill="none" stroke="#000000" points="464.9331,-52 257.0699,-52 257.0699,-16 464.9331,-16 464.9331,-52"/>
<text text-anchor="middle" x="361.0015" y="-30.7" font-family="Courier,monospace" font-size="11.00" fill="#000000">FontAwesome_Config_Controller</text>
</g>
<!-- \\WP_REST_Controller -->
<g id="node3" class="node">
<title>\\WP_REST_Controller</title>
<ellipse fill="none" stroke="#000000" cx="92.643" cy="-34" rx="92.7861" ry="18"/>
<text text-anchor="middle" x="92.643" y="-29.8" font-family="Times,serif" font-size="14.00" fill="#c0c0c0">\WP_REST_Controller</text>
</g>
<!-- \\FontAwesome_Config_Controller&#45;&gt;\\WP_REST_Controller -->
<g id="edge1" class="edge">
<title>\\FontAwesome_Config_Controller&#45;&gt;\\WP_REST_Controller</title>
<path fill="none" stroke="#000000" d="M257.2471,-34C237.0591,-34 215.9011,-34 195.7346,-34"/>
<polygon fill="none" stroke="#000000" points="195.6076,-30.5001 185.6075,-34 195.6075,-37.5001 195.6076,-30.5001"/>
</g>
</g>
</svg>
