<?xml version="1.0" encoding="UTF-8" standalone="no"?>
<!DOCTYPE svg PUBLIC "-//W3C//DTD SVG 1.1//EN"
 "http://www.w3.org/Graphics/SVG/1.1/DTD/svg11.dtd">
<!-- Generated by graphviz version 2.40.1 (20161225.0304)
 -->
<!-- Title: G Pages: 1 -->
<svg width="939pt" height="1254pt"
 viewBox="0.00 0.00 938.61 1254.00" xmlns="http://www.w3.org/2000/svg" xmlns:xlink="http://www.w3.org/1999/xlink">
<g id="graph0" class="graph" transform="scale(1 1) rotate(0) translate(4 1250)">
<title>G</title>
<polygon fill="#ffffff" stroke="transparent" points="-4,4 -4,-1250 934.607,-1250 934.607,4 -4,4"/>
<g id="clust1" class="cluster">
<title>cluster_Global</title>
<path fill="none" stroke="#c0c0c0" d="M20,-8C20,-8 910.607,-8 910.607,-8 916.607,-8 922.607,-14 922.607,-20 922.607,-20 922.607,-1226 922.607,-1226 922.607,-1232 916.607,-1238 910.607,-1238 910.607,-1238 20,-1238 20,-1238 14,-1238 8,-1232 8,-1226 8,-1226 8,-20 8,-20 8,-14 14,-8 20,-8"/>
<text text-anchor="middle" x="465.3035" y="-1225.2" font-family="Times,serif" font-size="11.00" fill="#c0c0c0">Global</text>
</g>
<g id="clust2" class="cluster">
<title>cluster_\FortAwesome</title>
<path fill="none" stroke="#c0c0c0" d="M183.92,-16C183.92,-16 902.607,-16 902.607,-16 908.607,-16 914.607,-22 914.607,-28 914.607,-28 914.607,-1101 914.607,-1101 914.607,-1107 908.607,-1113 902.607,-1113 902.607,-1113 183.92,-1113 183.92,-1113 177.92,-1113 171.92,-1107 171.92,-1101 171.92,-1101 171.92,-28 171.92,-28 171.92,-22 177.92,-16 183.92,-16"/>
<text text-anchor="middle" x="543.2635" y="-1100.2" font-family="Times,serif" font-size="11.00" fill="#c0c0c0">FortAwesome</text>
</g>
<!-- \\FortAwesome\\FontAwesome_Loader -->
<g id="node1" class="node">
<title>\\FortAwesome\\FontAwesome_Loader</title>
<polygon fill="none" stroke="#000000" points="857.0087,-1086 722.3698,-1086 722.3698,-1050 857.0087,-1050 857.0087,-1086"/>
<text text-anchor="middle" x="789.6893" y="-1064.7" font-family="Courier,monospace" font-size="11.00" fill="#000000">FontAwesome_Loader</text>
</g>
<!-- \\FortAwesome\\FontAwesome_API_Controller -->
<g id="node2" class="node">
<title>\\FortAwesome\\FontAwesome_API_Controller</title>
<polygon fill="none" stroke="#000000" points="883.3176,-978 696.061,-978 696.061,-942 883.3176,-942 883.3176,-978"/>
<text text-anchor="middle" x="789.6893" y="-956.7" font-family="Courier,monospace" font-size="11.00" fill="#000000">FontAwesome_API_Controller</text>
</g>
<!-- WP_REST_Controller -->
<g id="node24" class="node">
<title>WP_REST_Controller</title>
<ellipse fill="none" stroke="#000000" cx="503.657" cy="-1139" rx="90.3723" ry="18"/>
<text text-anchor="middle" x="503.657" y="-1134.8" font-family="Times,serif" font-size="14.00" fill="#c0c0c0">WP_REST_Controller</text>
</g>
<!-- \\FortAwesome\\FontAwesome_API_Controller&#45;&gt;WP_REST_Controller -->
<g id="edge1" class="edge">
<title>\\FortAwesome\\FontAwesome_API_Controller&#45;&gt;WP_REST_Controller</title>
<path fill="none" stroke="#000000" d="M695.8267,-974.0164C687.5994,-977.4673 679.7582,-981.7329 672.7715,-987 620.0319,-1026.7593 653.5941,-1077.3509 600.7715,-1117 596.8312,-1119.9577 592.5645,-1122.5295 588.0931,-1124.7647"/>
<polygon fill="none" stroke="#000000" points="586.4205,-1121.6762 578.6661,-1128.8957 589.2301,-1128.0877 586.4205,-1121.6762"/>
</g>
<!-- \\FortAwesome\\FontAwesome_REST_Response -->
<g id="node3" class="node">
<title>\\FortAwesome\\FontAwesome_REST_Response</title>
<polygon fill="none" stroke="#000000" points="880.2161,-1032 699.1624,-1032 699.1624,-996 880.2161,-996 880.2161,-1032"/>
<text text-anchor="middle" x="789.6893" y="-1010.7" font-family="Courier,monospace" font-size="11.00" fill="#000000">FontAwesome_REST_Response</text>
</g>
<!-- WP_REST_Response -->
<g id="node25" class="node">
<title>WP_REST_Response</title>
<ellipse fill="none" stroke="#000000" cx="503.657" cy="-1193" rx="87.9672" ry="18"/>
<text text-anchor="middle" x="503.657" y="-1188.8" font-family="Times,serif" font-size="14.00" fill="#c0c0c0">WP_REST_Response</text>
</g>
<!-- \\FortAwesome\\FontAwesome_REST_Response&#45;&gt;WP_REST_Response -->
<g id="edge2" class="edge">
<title>\\FortAwesome\\FontAwesome_REST_Response&#45;&gt;WP_REST_Response</title>
<path fill="none" stroke="#000000" d="M698.879,-1026.95C689.5588,-1030.5734 680.6392,-1035.1717 672.7715,-1041 621.2547,-1079.1633 651.4321,-1126.7071 600.7715,-1166 594.8299,-1170.6084 588.1468,-1174.4305 581.1387,-1177.6004"/>
<polygon fill="none" stroke="#000000" points="579.3778,-1174.537 571.4197,-1181.5312 582.0025,-1181.0264 579.3778,-1174.537"/>
</g>
<!-- \\FortAwesome\\FontAwesome_Exception -->
<g id="node4" class="node">
<title>\\FortAwesome\\FontAwesome_Exception</title>
<polygon fill="none" stroke="#000000" points="334.3543,-627 180.1082,-627 180.1082,-591 334.3543,-591 334.3543,-627"/>
<text text-anchor="start" x="224.2259" y="-611.2" font-family="Courier,monospace" font-size="11.00" fill="#000000">«abstract»</text>
<text text-anchor="start" x="187.92" y="-600.2" font-family="Courier,monospace" font-size="11.00" fill="#000000">FontAwesome_Exception</text>
</g>
<!-- Exception -->
<g id="node26" class="node">
<title>Exception</title>
<ellipse fill="none" stroke="#000000" cx="61.96" cy="-609" rx="45.92" ry="18"/>
<text text-anchor="middle" x="61.96" y="-604.8" font-family="Times,serif" font-size="14.00" fill="#c0c0c0">Exception</text>
</g>
<!-- \\FortAwesome\\FontAwesome_Exception&#45;&gt;Exception -->
<g id="edge3" class="edge">
<title>\\FortAwesome\\FontAwesome_Exception&#45;&gt;Exception</title>
<path fill="none" stroke="#000000" d="M180.0549,-609C159.3615,-609 137.3843,-609 118.0711,-609"/>
<polygon fill="none" stroke="#000000" points="117.9391,-605.5001 107.9391,-609 117.9391,-612.5001 117.9391,-605.5001"/>
</g>
<!-- \\FortAwesome\\FontAwesome_ServerException -->
<g id="node5" class="node">
<title>\\FortAwesome\\FontAwesome_ServerException</title>
<polygon fill="none" stroke="#000000" points="600.8862,-438 406.4279,-438 406.4279,-402 600.8862,-402 600.8862,-438"/>
<text text-anchor="start" x="470.6517" y="-422.2" font-family="Courier,monospace" font-size="11.00" fill="#000000">«abstract»</text>
<text text-anchor="start" x="414.5425" y="-411.2" font-family="Courier,monospace" font-size="11.00" fill="#000000">FontAwesome_ServerException</text>
</g>
<!-- \\FortAwesome\\FontAwesome_ServerException&#45;&gt;\\FortAwesome\\FontAwesome_Exception -->
<g id="edge4" class="edge">
<title>\\FortAwesome\\FontAwesome_ServerException&#45;&gt;\\FortAwesome\\FontAwesome_Exception</title>
<path fill="none" stroke="#000000" d="M480.0287,-438.1221C435.5025,-472.2721 339.1527,-546.1691 289.008,-584.6284"/>
<polygon fill="none" stroke="#000000" points="286.593,-582.0697 280.7881,-590.9328 290.8531,-587.6241 286.593,-582.0697"/>
</g>
<!-- \\FortAwesome\\FontAwesome_ClientException -->
<g id="node6" class="node">
<title>\\FortAwesome\\FontAwesome_ClientException</title>
<polygon fill="none" stroke="#000000" points="600.8862,-816 406.4279,-816 406.4279,-780 600.8862,-780 600.8862,-816"/>
<text text-anchor="start" x="470.6517" y="-800.2" font-family="Courier,monospace" font-size="11.00" fill="#000000">«abstract»</text>
<text text-anchor="start" x="414.5425" y="-789.2" font-family="Courier,monospace" font-size="11.00" fill="#000000">FontAwesome_ClientException</text>
</g>
<!-- \\FortAwesome\\FontAwesome_ClientException&#45;&gt;\\FortAwesome\\FontAwesome_Exception -->
<g id="edge5" class="edge">
<title>\\FortAwesome\\FontAwesome_ClientException&#45;&gt;\\FortAwesome\\FontAwesome_Exception</title>
<path fill="none" stroke="#000000" d="M480.0287,-779.8779C435.5025,-745.7279 339.1527,-671.8309 289.008,-633.3716"/>
<polygon fill="none" stroke="#000000" points="290.8531,-630.3759 280.7881,-627.0672 286.593,-635.9303 290.8531,-630.3759"/>
</g>
<!-- \\FortAwesome\\ApiTokenMissingException -->
<g id="node7" class="node">
<title>\\FortAwesome\\ApiTokenMissingException</title>
<polygon fill="none" stroke="#000000" points="877.1156,-924 702.263,-924 702.263,-888 877.1156,-888 877.1156,-924"/>
<text text-anchor="middle" x="789.6893" y="-902.7" font-family="Courier,monospace" font-size="11.00" fill="#000000">ApiTokenMissingException</text>
</g>
<!-- \\FortAwesome\\ApiTokenMissingException&#45;&gt;\\FortAwesome\\FontAwesome_ClientException -->
<g id="edge6" class="edge">
<title>\\FortAwesome\\ApiTokenMissingException&#45;&gt;\\FortAwesome\\FontAwesome_ClientException</title>
<path fill="none" stroke="#000000" d="M702.261,-890.5151C692.0739,-887.3462 682.0267,-883.5477 672.7715,-879 638.2512,-862.0378 637.8122,-841.3224 601.1259,-820.7977"/>
<polygon fill="none" stroke="#000000" points="602.6387,-817.6397 592.1497,-816.1458 599.4178,-823.8547 602.6387,-817.6397"/>
</g>
<!-- \\FortAwesome\\ApiTokenEndpointRequestException -->
<g id="node8" class="node">
<title>\\FortAwesome\\ApiTokenEndpointRequestException</title>
<polygon fill="none" stroke="#000000" points="903.4238,-708 675.9548,-708 675.9548,-672 903.4238,-672 903.4238,-708"/>
<text text-anchor="middle" x="789.6893" y="-686.7" font-family="Courier,monospace" font-size="11.00" fill="#000000">ApiTokenEndpointRequestException</text>
</g>
<!-- \\FortAwesome\\ApiTokenEndpointRequestException&#45;&gt;\\FortAwesome\\FontAwesome_ServerException -->
<g id="edge7" class="edge">
<title>\\FortAwesome\\ApiTokenEndpointRequestException&#45;&gt;\\FortAwesome\\FontAwesome_ServerException</title>
<path fill="none" stroke="#000000" d="M688.7353,-671.947C683.1455,-669.3507 677.7752,-666.3856 672.7715,-663 590.9589,-607.6423 536.6723,-498.4477 514.6919,-447.4499"/>
<polygon fill="none" stroke="#000000" points="517.8414,-445.9112 510.7279,-438.0595 511.3925,-448.6335 517.8414,-445.9112"/>
</g>
<!-- \\FortAwesome\\ApiTokenInvalidException -->
<g id="node9" class="node">
<title>\\FortAwesome\\ApiTokenInvalidException</title>
<polygon fill="none" stroke="#000000" points="877.1156,-870 702.263,-870 702.263,-834 877.1156,-834 877.1156,-870"/>
<text text-anchor="middle" x="789.6893" y="-848.7" font-family="Courier,monospace" font-size="11.00" fill="#000000">ApiTokenInvalidException</text>
</g>
<!-- \\FortAwesome\\ApiTokenInvalidException&#45;&gt;\\FortAwesome\\FontAwesome_ClientException -->
<g id="edge8" class="edge">
<title>\\FortAwesome\\ApiTokenInvalidException&#45;&gt;\\FortAwesome\\FontAwesome_ClientException</title>
<path fill="none" stroke="#000000" d="M702.316,-835.5048C672.889,-829.9493 639.7385,-823.6908 609.071,-817.9011"/>
<polygon fill="none" stroke="#000000" points="609.6849,-814.4552 599.2092,-816.0393 608.3863,-821.3337 609.6849,-814.4552"/>
</g>
<!-- \\FortAwesome\\ApiTokenEndpointResponseException -->
<g id="node10" class="node">
<title>\\FortAwesome\\ApiTokenEndpointResponseException</title>
<polygon fill="none" stroke="#000000" points="906.5248,-654 672.8538,-654 672.8538,-618 906.5248,-618 906.5248,-654"/>
<text text-anchor="middle" x="789.6893" y="-632.7" font-family="Courier,monospace" font-size="11.00" fill="#000000">ApiTokenEndpointResponseException</text>
</g>
<!-- \\FortAwesome\\ApiTokenEndpointResponseException&#45;&gt;\\FortAwesome\\FontAwesome_ServerException -->
<g id="edge9" class="edge">
<title>\\FortAwesome\\ApiTokenEndpointResponseException&#45;&gt;\\FortAwesome\\FontAwesome_ServerException</title>
<path fill="none" stroke="#000000" d="M690.9761,-617.9524C684.6409,-615.3588 678.5101,-612.3925 672.7715,-609 603.0315,-567.7708 546.1783,-488.1716 519.7147,-446.6578"/>
<polygon fill="none" stroke="#000000" points="522.6661,-444.7763 514.3871,-438.1649 516.7362,-448.4961 522.6661,-444.7763"/>
</g>
<!-- \\FortAwesome\\AccessTokenStorageException -->
<g id="node11" class="node">
<title>\\FortAwesome\\AccessTokenStorageException</title>
<polygon fill="none" stroke="#000000" points="886.9184,-600 692.4601,-600 692.4601,-564 886.9184,-564 886.9184,-600"/>
<text text-anchor="middle" x="789.6893" y="-578.7" font-family="Courier,monospace" font-size="11.00" fill="#000000">AccessTokenStorageException</text>
</g>
<!-- \\FortAwesome\\AccessTokenStorageException&#45;&gt;\\FortAwesome\\FontAwesome_ServerException -->
<g id="edge10" class="edge">
<title>\\FortAwesome\\AccessTokenStorageException&#45;&gt;\\FortAwesome\\FontAwesome_ServerException</title>
<path fill="none" stroke="#000000" d="M694.934,-563.9995C687.2865,-561.3837 679.8049,-558.4003 672.7715,-555 615.0883,-527.113 559.2055,-476.4668 528.3253,-445.7625"/>
<polygon fill="none" stroke="#000000" points="530.5567,-443.0423 521.0272,-438.4119 525.5892,-447.9743 530.5567,-443.0423"/>
</g>
<!-- \\FortAwesome\\ConfigSchemaException -->
<g id="node12" class="node">
<title>\\FortAwesome\\ConfigSchemaException</title>
<polygon fill="none" stroke="#000000" points="866.8123,-816 712.5663,-816 712.5663,-780 866.8123,-780 866.8123,-816"/>
<text text-anchor="middle" x="789.6893" y="-794.7" font-family="Courier,monospace" font-size="11.00" fill="#000000">ConfigSchemaException</text>
</g>
<!-- \\FortAwesome\\ConfigSchemaException&#45;&gt;\\FortAwesome\\FontAwesome_ClientException -->
<g id="edge11" class="edge">
<title>\\FortAwesome\\ConfigSchemaException&#45;&gt;\\FortAwesome\\FontAwesome_ClientException</title>
<path fill="none" stroke="#000000" d="M712.2848,-798C681.1728,-798 644.7717,-798 611.1635,-798"/>
<polygon fill="none" stroke="#000000" points="610.8321,-794.5001 600.832,-798 610.832,-801.5001 610.8321,-794.5001"/>
</g>
<!-- \\FortAwesome\\PreferenceRegistrationException -->
<g id="node13" class="node">
<title>\\FortAwesome\\PreferenceRegistrationException</title>
<polygon fill="none" stroke="#000000" points="899.8229,-546 679.5557,-546 679.5557,-510 899.8229,-510 899.8229,-546"/>
<text text-anchor="middle" x="789.6893" y="-524.7" font-family="Courier,monospace" font-size="11.00" fill="#000000">PreferenceRegistrationException</text>
</g>
<!-- \\FortAwesome\\PreferenceRegistrationException&#45;&gt;\\FortAwesome\\FontAwesome_ServerException -->
<g id="edge12" class="edge">
<title>\\FortAwesome\\PreferenceRegistrationException&#45;&gt;\\FortAwesome\\FontAwesome_ServerException</title>
<path fill="none" stroke="#000000" d="M701.9388,-509.9515C692.0098,-507.2565 682.1109,-504.2703 672.7715,-501 627.5554,-485.1672 578.4389,-460.7701 544.8487,-442.8874"/>
<polygon fill="none" stroke="#000000" points="546.2683,-439.677 535.8024,-438.0289 542.9562,-445.8439 546.2683,-439.677"/>
</g>
<!-- \\FortAwesome\\ApiRequestException -->
<g id="node14" class="node">
<title>\\FortAwesome\\ApiRequestException</title>
<polygon fill="none" stroke="#000000" points="860.6103,-492 718.7682,-492 718.7682,-456 860.6103,-456 860.6103,-492"/>
<text text-anchor="middle" x="789.6893" y="-470.7" font-family="Courier,monospace" font-size="11.00" fill="#000000">ApiRequestException</text>
</g>
<!-- \\FortAwesome\\ApiRequestException&#45;&gt;\\FortAwesome\\FontAwesome_ServerException -->
<g id="edge13" class="edge">
<title>\\FortAwesome\\ApiRequestException&#45;&gt;\\FortAwesome\\FontAwesome_ServerException</title>
<path fill="none" stroke="#000000" d="M718.6172,-460.5823C685.648,-454.3581 645.7816,-446.8317 609.3803,-439.9595"/>
<polygon fill="none" stroke="#000000" points="609.6896,-436.4561 599.2138,-438.0402 608.3909,-443.3346 609.6896,-436.4561"/>
</g>
<!-- \\FortAwesome\\ApiResponseException -->
<g id="node15" class="node">
<title>\\FortAwesome\\ApiResponseException</title>
<polygon fill="none" stroke="#000000" points="863.7108,-438 715.6678,-438 715.6678,-402 863.7108,-402 863.7108,-438"/>
<text text-anchor="middle" x="789.6893" y="-416.7" font-family="Courier,monospace" font-size="11.00" fill="#000000">ApiResponseException</text>
</g>
<!-- \\FortAwesome\\ApiResponseException&#45;&gt;\\FortAwesome\\FontAwesome_ServerException -->
<g id="edge14" class="edge">
<title>\\FortAwesome\\ApiResponseException&#45;&gt;\\FortAwesome\\FontAwesome_ServerException</title>
<path fill="none" stroke="#000000" d="M715.6569,-420C683.7931,-420 645.9218,-420 611.0644,-420"/>
<polygon fill="none" stroke="#000000" points="610.8387,-416.5001 600.8387,-420 610.8386,-423.5001 610.8387,-416.5001"/>
</g>
<!-- \\FortAwesome\\ReleaseProviderStorageException -->
<g id="node16" class="node">
<title>\\FortAwesome\\ReleaseProviderStorageException</title>
<polygon fill="none" stroke="#000000" points="899.8229,-384 679.5557,-384 679.5557,-348 899.8229,-348 899.8229,-384"/>
<text text-anchor="middle" x="789.6893" y="-362.7" font-family="Courier,monospace" font-size="11.00" fill="#000000">ReleaseProviderStorageException</text>
</g>
<!-- \\FortAwesome\\ReleaseProviderStorageException&#45;&gt;\\FortAwesome\\FontAwesome_ServerException -->
<g id="edge15" class="edge">
<title>\\FortAwesome\\ReleaseProviderStorageException&#45;&gt;\\FortAwesome\\FontAwesome_ServerException</title>
<path fill="none" stroke="#000000" d="M694.047,-384.0563C666.8542,-389.19 637.0855,-394.8101 609.3337,-400.0493"/>
<polygon fill="none" stroke="#000000" points="608.3863,-396.6663 599.2092,-401.9607 609.6849,-403.5448 608.3863,-396.6663"/>
</g>
<!-- \\FortAwesome\\ReleaseMetadataMissingException -->
<g id="node17" class="node">
<title>\\FortAwesome\\ReleaseMetadataMissingException</title>
<polygon fill="none" stroke="#000000" points="899.8229,-330 679.5557,-330 679.5557,-294 899.8229,-294 899.8229,-330"/>
<text text-anchor="middle" x="789.6893" y="-308.7" font-family="Courier,monospace" font-size="11.00" fill="#000000">ReleaseMetadataMissingException</text>
</g>
<!-- \\FortAwesome\\ReleaseMetadataMissingException&#45;&gt;\\FortAwesome\\FontAwesome_ServerException -->
<g id="edge16" class="edge">
<title>\\FortAwesome\\ReleaseMetadataMissingException&#45;&gt;\\FortAwesome\\FontAwesome_ServerException</title>
<path fill="none" stroke="#000000" d="M701.9388,-330.0485C692.0098,-332.7435 682.1109,-335.7297 672.7715,-339 627.5554,-354.8328 578.4389,-379.2299 544.8487,-397.1126"/>
<polygon fill="none" stroke="#000000" points="542.9562,-394.1561 535.8024,-401.9711 546.2683,-400.323 542.9562,-394.1561"/>
</g>
<!-- \\FortAwesome\\ConfigCorruptionException -->
<g id="node18" class="node">
<title>\\FortAwesome\\ConfigCorruptionException</title>
<polygon fill="none" stroke="#000000" points="880.2161,-276 699.1624,-276 699.1624,-240 880.2161,-240 880.2161,-276"/>
<text text-anchor="middle" x="789.6893" y="-254.7" font-family="Courier,monospace" font-size="11.00" fill="#000000">ConfigCorruptionException</text>
</g>
<!-- \\FortAwesome\\ConfigCorruptionException&#45;&gt;\\FortAwesome\\FontAwesome_ServerException -->
<g id="edge17" class="edge">
<title>\\FortAwesome\\ConfigCorruptionException&#45;&gt;\\FortAwesome\\FontAwesome_ServerException</title>
<path fill="none" stroke="#000000" d="M698.9243,-274.6731C689.8936,-277.5945 681.024,-281.0103 672.7715,-285 615.0883,-312.887 559.2055,-363.5332 528.3253,-394.2375"/>
<polygon fill="none" stroke="#000000" points="525.5892,-392.0257 521.0272,-401.5881 530.5567,-396.9577 525.5892,-392.0257"/>
</g>
<!-- \\FortAwesome\\ConflictDetectionSchemaException -->
<g id="node19" class="node">
<title>\\FortAwesome\\ConflictDetectionSchemaException</title>
<polygon fill="none" stroke="#000000" points="903.4238,-762 675.9548,-762 675.9548,-726 903.4238,-726 903.4238,-762"/>
<text text-anchor="middle" x="789.6893" y="-740.7" font-family="Courier,monospace" font-size="11.00" fill="#000000">ConflictDetectionSchemaException</text>
</g>
<!-- \\FortAwesome\\ConflictDetectionSchemaException&#45;&gt;\\FortAwesome\\FontAwesome_ClientException -->
<g id="edge18" class="edge">
<title>\\FortAwesome\\ConflictDetectionSchemaException&#45;&gt;\\FortAwesome\\FontAwesome_ClientException</title>
<path fill="none" stroke="#000000" d="M694.047,-762.0563C666.8542,-767.19 637.0855,-772.8101 609.3337,-778.0493"/>
<polygon fill="none" stroke="#000000" points="608.3863,-774.6663 599.2092,-779.9607 609.6849,-781.5448 608.3863,-774.6663"/>
</g>
<!-- \\FortAwesome\\ConflictDetectionStorageException -->
<g id="node20" class="node">
<title>\\FortAwesome\\ConflictDetectionStorageException</title>
<polygon fill="none" stroke="#000000" points="906.5248,-222 672.8538,-222 672.8538,-186 906.5248,-186 906.5248,-222"/>
<text text-anchor="middle" x="789.6893" y="-200.7" font-family="Courier,monospace" font-size="11.00" fill="#000000">ConflictDetectionStorageException</text>
</g>
<!-- \\FortAwesome\\ConflictDetectionStorageException&#45;&gt;\\FortAwesome\\FontAwesome_ServerException -->
<g id="edge19" class="edge">
<title>\\FortAwesome\\ConflictDetectionStorageException&#45;&gt;\\FortAwesome\\FontAwesome_ServerException</title>
<path fill="none" stroke="#000000" d="M690.9761,-222.0476C684.6409,-224.6412 678.5101,-227.6075 672.7715,-231 603.0315,-272.2292 546.1783,-351.8284 519.7147,-393.3422"/>
<polygon fill="none" stroke="#000000" points="516.7362,-391.5039 514.3871,-401.8351 522.6661,-395.2237 516.7362,-391.5039"/>
</g>
<!-- \\FortAwesome\\ClientPreferencesSchemaException -->
<g id="node21" class="node">
<title>\\FortAwesome\\ClientPreferencesSchemaException</title>
<polygon fill="none" stroke="#000000" points="903.4238,-168 675.9548,-168 675.9548,-132 903.4238,-132 903.4238,-168"/>
<text text-anchor="middle" x="789.6893" y="-146.7" font-family="Courier,monospace" font-size="11.00" fill="#000000">ClientPreferencesSchemaException</text>
</g>
<!-- \\FortAwesome\\ClientPreferencesSchemaException&#45;&gt;\\FortAwesome\\FontAwesome_ServerException -->
<g id="edge20" class="edge">
<title>\\FortAwesome\\ClientPreferencesSchemaException&#45;&gt;\\FortAwesome\\FontAwesome_ServerException</title>
<path fill="none" stroke="#000000" d="M688.7353,-168.053C683.1455,-170.6493 677.7752,-173.6144 672.7715,-177 590.9589,-232.3577 536.6723,-341.5523 514.6919,-392.5501"/>
<polygon fill="none" stroke="#000000" points="511.3925,-391.3665 510.7279,-401.9405 517.8414,-394.0888 511.3925,-391.3665"/>
</g>
<!-- \\FortAwesome\\UpgradeException -->
<g id="node22" class="node">
<title>\\FortAwesome\\UpgradeException</title>
<polygon fill="none" stroke="#000000" points="850.3071,-114 729.0715,-114 729.0715,-78 850.3071,-78 850.3071,-114"/>
<text text-anchor="middle" x="789.6893" y="-92.7" font-family="Courier,monospace" font-size="11.00" fill="#000000">UpgradeException</text>
</g>
<!-- \\FortAwesome\\UpgradeException&#45;&gt;\\FortAwesome\\FontAwesome_ServerException -->
<g id="edge21" class="edge">
<title>\\FortAwesome\\UpgradeException&#45;&gt;\\FortAwesome\\FontAwesome_ServerException</title>
<path fill="none" stroke="#000000" d="M728.8639,-100.4003C709.4768,-104.2021 688.8956,-110.9934 672.7715,-123 578.492,-193.2045 528.8558,-332.61 511.2271,-392.0726"/>
<polygon fill="none" stroke="#000000" points="507.805,-391.3081 508.3952,-401.8864 514.5306,-393.2489 507.805,-391.3081"/>
</g>
<!-- \\FortAwesome\\FontAwesome -->
<g id="node23" class="node">
<title>\\FortAwesome\\FontAwesome</title>
<polygon fill="none" stroke="#000000" points="833.8019,-60 745.5766,-60 745.5766,-24 833.8019,-24 833.8019,-60"/>
<text text-anchor="middle" x="789.6893" y="-38.7" font-family="Courier,monospace" font-size="11.00" fill="#000000">FontAwesome</text>
</g>
</g>
</svg>
