<?xml version="1.0" encoding="UTF-8" standalone="no"?>
<!DOCTYPE svg PUBLIC "-//W3C//DTD SVG 1.1//EN"
 "http://www.w3.org/Graphics/SVG/1.1/DTD/svg11.dtd">
<!-- Generated by graphviz version 2.40.1 (20161225.0304)
 -->
<!-- Title: G Pages: 1 -->
<svg width="939pt" height="1092pt"
 viewBox="0.00 0.00 938.61 1092.00" xmlns="http://www.w3.org/2000/svg" xmlns:xlink="http://www.w3.org/1999/xlink">
<g id="graph0" class="graph" transform="scale(1 1) rotate(0) translate(4 1088)">
<title>G</title>
<polygon fill="#ffffff" stroke="transparent" points="-4,4 -4,-1088 934.607,-1088 934.607,4 -4,4"/>
<g id="clust1" class="cluster">
<title>cluster_Global</title>
<path fill="none" stroke="#c0c0c0" d="M20,-8C20,-8 910.607,-8 910.607,-8 916.607,-8 922.607,-14 922.607,-20 922.607,-20 922.607,-1064 922.607,-1064 922.607,-1070 916.607,-1076 910.607,-1076 910.607,-1076 20,-1076 20,-1076 14,-1076 8,-1070 8,-1064 8,-1064 8,-20 8,-20 8,-14 14,-8 20,-8"/>
<text text-anchor="middle" x="465.3035" y="-1063.2" font-family="Times,serif" font-size="11.00" fill="#c0c0c0">Global</text>
</g>
<g id="clust2" class="cluster">
<title>cluster_\FortAwesome</title>
<path fill="none" stroke="#c0c0c0" d="M183.92,-16C183.92,-16 902.607,-16 902.607,-16 908.607,-16 914.607,-22 914.607,-28 914.607,-28 914.607,-993 914.607,-993 914.607,-999 908.607,-1005 902.607,-1005 902.607,-1005 183.92,-1005 183.92,-1005 177.92,-1005 171.92,-999 171.92,-993 171.92,-993 171.92,-28 171.92,-28 171.92,-22 177.92,-16 183.92,-16"/>
<text text-anchor="middle" x="543.2635" y="-992.2" font-family="Times,serif" font-size="11.00" fill="#c0c0c0">FortAwesome</text>
</g>
<!-- \\FortAwesome\\FontAwesome_Loader -->
<g id="node1" class="node">
<title>\\FortAwesome\\FontAwesome_Loader</title>
<polygon fill="none" stroke="#000000" points="857.0087,-978 722.3698,-978 722.3698,-942 857.0087,-942 857.0087,-978"/>
<text text-anchor="middle" x="789.6893" y="-956.7" font-family="Courier,monospace" font-size="11.00" fill="#000000">FontAwesome_Loader</text>
</g>
<!-- \\FortAwesome\\FontAwesome_Exception -->
<g id="node2" class="node">
<title>\\FortAwesome\\FontAwesome_Exception</title>
<polygon fill="none" stroke="#000000" points="334.3543,-600 180.1082,-600 180.1082,-564 334.3543,-564 334.3543,-600"/>
<text text-anchor="start" x="224.2259" y="-584.2" font-family="Courier,monospace" font-size="11.00" fill="#000000">«abstract»</text>
<text text-anchor="start" x="187.92" y="-573.2" font-family="Courier,monospace" font-size="11.00" fill="#000000">FontAwesome_Exception</text>
</g>
<!-- Exception -->
<g id="node22" class="node">
<title>Exception</title>
<ellipse fill="none" stroke="#000000" cx="61.96" cy="-582" rx="45.92" ry="18"/>
<text text-anchor="middle" x="61.96" y="-577.8" font-family="Times,serif" font-size="14.00" fill="#c0c0c0">Exception</text>
</g>
<!-- \\FortAwesome\\FontAwesome_Exception&#45;&gt;Exception -->
<g id="edge1" class="edge">
<title>\\FortAwesome\\FontAwesome_Exception&#45;&gt;Exception</title>
<path fill="none" stroke="#000000" d="M180.0549,-582C159.3615,-582 137.3843,-582 118.0711,-582"/>
<polygon fill="none" stroke="#000000" points="117.9391,-578.5001 107.9391,-582 117.9391,-585.5001 117.9391,-578.5001"/>
</g>
<!-- \\FortAwesome\\FontAwesome_ServerException -->
<g id="node3" class="node">
<title>\\FortAwesome\\FontAwesome_ServerException</title>
<polygon fill="none" stroke="#000000" points="600.8862,-411 406.4279,-411 406.4279,-375 600.8862,-375 600.8862,-411"/>
<text text-anchor="start" x="470.6517" y="-395.2" font-family="Courier,monospace" font-size="11.00" fill="#000000">«abstract»</text>
<text text-anchor="start" x="414.5425" y="-384.2" font-family="Courier,monospace" font-size="11.00" fill="#000000">FontAwesome_ServerException</text>
</g>
<!-- \\FortAwesome\\FontAwesome_ServerException&#45;&gt;\\FortAwesome\\FontAwesome_Exception -->
<g id="edge2" class="edge">
<title>\\FortAwesome\\FontAwesome_ServerException&#45;&gt;\\FortAwesome\\FontAwesome_Exception</title>
<path fill="none" stroke="#000000" d="M480.0287,-411.1221C435.5025,-445.2721 339.1527,-519.1691 289.008,-557.6284"/>
<polygon fill="none" stroke="#000000" points="286.593,-555.0697 280.7881,-563.9328 290.8531,-560.6241 286.593,-555.0697"/>
</g>
<!-- \\FortAwesome\\FontAwesome_ClientException -->
<g id="node4" class="node">
<title>\\FortAwesome\\FontAwesome_ClientException</title>
<polygon fill="none" stroke="#000000" points="600.8862,-762 406.4279,-762 406.4279,-726 600.8862,-726 600.8862,-762"/>
<text text-anchor="start" x="470.6517" y="-746.2" font-family="Courier,monospace" font-size="11.00" fill="#000000">«abstract»</text>
<text text-anchor="start" x="414.5425" y="-735.2" font-family="Courier,monospace" font-size="11.00" fill="#000000">FontAwesome_ClientException</text>
</g>
<!-- \\FortAwesome\\FontAwesome_ClientException&#45;&gt;\\FortAwesome\\FontAwesome_Exception -->
<g id="edge3" class="edge">
<title>\\FortAwesome\\FontAwesome_ClientException&#45;&gt;\\FortAwesome\\FontAwesome_Exception</title>
<path fill="none" stroke="#000000" d="M475.8679,-725.7314C431.1019,-696.3023 343.0346,-638.407 293.4218,-605.7916"/>
<polygon fill="none" stroke="#000000" points="295.1976,-602.7705 284.9189,-600.2018 291.3523,-608.6197 295.1976,-602.7705"/>
</g>
<!-- \\FortAwesome\\ApiTokenMissingException -->
<g id="node5" class="node">
<title>\\FortAwesome\\ApiTokenMissingException</title>
<polygon fill="none" stroke="#000000" points="877.1156,-816 702.263,-816 702.263,-780 877.1156,-780 877.1156,-816"/>
<text text-anchor="middle" x="789.6893" y="-794.7" font-family="Courier,monospace" font-size="11.00" fill="#000000">ApiTokenMissingException</text>
</g>
<!-- \\FortAwesome\\ApiTokenMissingException&#45;&gt;\\FortAwesome\\FontAwesome_ClientException -->
<g id="edge4" class="edge">
<title>\\FortAwesome\\ApiTokenMissingException&#45;&gt;\\FortAwesome\\FontAwesome_ClientException</title>
<path fill="none" stroke="#000000" d="M702.316,-781.5048C672.889,-775.9493 639.7385,-769.6908 609.071,-763.9011"/>
<polygon fill="none" stroke="#000000" points="609.6849,-760.4552 599.2092,-762.0393 608.3863,-767.3337 609.6849,-760.4552"/>
</g>
<!-- \\FortAwesome\\ApiTokenEndpointRequestException -->
<g id="node6" class="node">
<title>\\FortAwesome\\ApiTokenEndpointRequestException</title>
<polygon fill="none" stroke="#000000" points="903.4238,-330 675.9548,-330 675.9548,-294 903.4238,-294 903.4238,-330"/>
<text text-anchor="middle" x="789.6893" y="-308.7" font-family="Courier,monospace" font-size="11.00" fill="#000000">ApiTokenEndpointRequestException</text>
</g>
<!-- \\FortAwesome\\ApiTokenEndpointRequestException&#45;&gt;\\FortAwesome\\FontAwesome_ServerException -->
<g id="edge5" class="edge">
<title>\\FortAwesome\\ApiTokenEndpointRequestException&#45;&gt;\\FortAwesome\\FontAwesome_ServerException</title>
<path fill="none" stroke="#000000" d="M707.7067,-330.0324C695.9438,-332.8808 684.0212,-335.9106 672.7715,-339 637.084,-348.8006 597.668,-361.2878 565.8729,-371.7851"/>
<polygon fill="none" stroke="#000000" points="564.6516,-368.5026 556.2627,-374.9738 566.8561,-375.1464 564.6516,-368.5026"/>
</g>
<!-- \\FortAwesome\\ApiTokenInvalidException -->
<g id="node7" class="node">
<title>\\FortAwesome\\ApiTokenInvalidException</title>
<polygon fill="none" stroke="#000000" points="877.1156,-762 702.263,-762 702.263,-726 877.1156,-726 877.1156,-762"/>
<text text-anchor="middle" x="789.6893" y="-740.7" font-family="Courier,monospace" font-size="11.00" fill="#000000">ApiTokenInvalidException</text>
</g>
<!-- \\FortAwesome\\ApiTokenInvalidException&#45;&gt;\\FortAwesome\\FontAwesome_ClientException -->
<g id="edge6" class="edge">
<title>\\FortAwesome\\ApiTokenInvalidException&#45;&gt;\\FortAwesome\\FontAwesome_ClientException</title>
<path fill="none" stroke="#000000" d="M702.316,-744C673.533,-744 641.1877,-744 611.088,-744"/>
<polygon fill="none" stroke="#000000" points="610.9748,-740.5001 600.9747,-744 610.9747,-747.5001 610.9748,-740.5001"/>
</g>
<!-- \\FortAwesome\\ApiTokenEndpointResponseException -->
<g id="node8" class="node">
<title>\\FortAwesome\\ApiTokenEndpointResponseException</title>
<polygon fill="none" stroke="#000000" points="906.5248,-276 672.8538,-276 672.8538,-240 906.5248,-240 906.5248,-276"/>
<text text-anchor="middle" x="789.6893" y="-254.7" font-family="Courier,monospace" font-size="11.00" fill="#000000">ApiTokenEndpointResponseException</text>
</g>
<!-- \\FortAwesome\\ApiTokenEndpointResponseException&#45;&gt;\\FortAwesome\\FontAwesome_ServerException -->
<g id="edge7" class="edge">
<title>\\FortAwesome\\ApiTokenEndpointResponseException&#45;&gt;\\FortAwesome\\FontAwesome_ServerException</title>
<path fill="none" stroke="#000000" d="M697.7812,-276.0501C689.2016,-278.6801 680.7425,-281.6521 672.7715,-285 620.8802,-306.7953 567.1296,-344.0959 534.5344,-368.65"/>
<polygon fill="none" stroke="#000000" points="532.1539,-366.0635 526.3193,-374.9071 536.3953,-371.6322 532.1539,-366.0635"/>
</g>
<!-- \\FortAwesome\\AccessTokenStorageException -->
<g id="node9" class="node">
<title>\\FortAwesome\\AccessTokenStorageException</title>
<polygon fill="none" stroke="#000000" points="886.9184,-222 692.4601,-222 692.4601,-186 886.9184,-186 886.9184,-222"/>
<text text-anchor="middle" x="789.6893" y="-200.7" font-family="Courier,monospace" font-size="11.00" fill="#000000">AccessTokenStorageException</text>
</g>
<!-- \\FortAwesome\\AccessTokenStorageException&#45;&gt;\\FortAwesome\\FontAwesome_ServerException -->
<g id="edge8" class="edge">
<title>\\FortAwesome\\AccessTokenStorageException&#45;&gt;\\FortAwesome\\FontAwesome_ServerException</title>
<path fill="none" stroke="#000000" d="M692.469,-222.1008C685.6414,-224.6835 679.0029,-227.6326 672.7715,-231 609.0266,-265.447 552.0773,-330.4417 523.354,-366.7594"/>
<polygon fill="none" stroke="#000000" points="520.3879,-364.8716 517.0011,-374.9106 525.9091,-369.1747 520.3879,-364.8716"/>
</g>
<!-- \\FortAwesome\\ConfigSchemaException -->
<g id="node10" class="node">
<title>\\FortAwesome\\ConfigSchemaException</title>
<polygon fill="none" stroke="#000000" points="866.8123,-708 712.5663,-708 712.5663,-672 866.8123,-672 866.8123,-708"/>
<text text-anchor="middle" x="789.6893" y="-686.7" font-family="Courier,monospace" font-size="11.00" fill="#000000">ConfigSchemaException</text>
</g>
<!-- \\FortAwesome\\ConfigSchemaException&#45;&gt;\\FortAwesome\\FontAwesome_ClientException -->
<g id="edge9" class="edge">
<title>\\FortAwesome\\ConfigSchemaException&#45;&gt;\\FortAwesome\\FontAwesome_ClientException</title>
<path fill="none" stroke="#000000" d="M712.2848,-704.6132C680.5869,-710.5974 643.3989,-717.6181 609.268,-724.0617"/>
<polygon fill="none" stroke="#000000" points="608.4352,-720.657 599.2581,-725.9515 609.7339,-727.5355 608.4352,-720.657"/>
</g>
<!-- \\FortAwesome\\PreferenceRegistrationException -->
<g id="node11" class="node">
<title>\\FortAwesome\\PreferenceRegistrationException</title>
<polygon fill="none" stroke="#000000" points="899.8229,-168 679.5557,-168 679.5557,-132 899.8229,-132 899.8229,-168"/>
<text text-anchor="middle" x="789.6893" y="-146.7" font-family="Courier,monospace" font-size="11.00" fill="#000000">PreferenceRegistrationException</text>
</g>
<!-- \\FortAwesome\\PreferenceRegistrationException&#45;&gt;\\FortAwesome\\FontAwesome_ServerException -->
<g id="edge10" class="edge">
<title>\\FortAwesome\\PreferenceRegistrationException&#45;&gt;\\FortAwesome\\FontAwesome_ServerException</title>
<path fill="none" stroke="#000000" d="M689.8326,-168.0008C683.8748,-170.6069 678.132,-173.5886 672.7715,-177 597.1853,-225.1025 541.3665,-319.1476 517.0792,-365.6395"/>
<polygon fill="none" stroke="#000000" points="513.8278,-364.3095 512.3793,-374.8049 520.0567,-367.5036 513.8278,-364.3095"/>
</g>
<!-- \\FortAwesome\\ApiRequestException -->
<g id="node12" class="node">
<title>\\FortAwesome\\ApiRequestException</title>
<polygon fill="none" stroke="#000000" points="860.6103,-60 718.7682,-60 718.7682,-24 860.6103,-24 860.6103,-60"/>
<text text-anchor="middle" x="789.6893" y="-38.7" font-family="Courier,monospace" font-size="11.00" fill="#000000">ApiRequestException</text>
</g>
<!-- \\FortAwesome\\ApiRequestException&#45;&gt;\\FortAwesome\\FontAwesome_ServerException -->
<g id="edge11" class="edge">
<title>\\FortAwesome\\ApiRequestException&#45;&gt;\\FortAwesome\\FontAwesome_ServerException</title>
<path fill="none" stroke="#000000" d="M718.8866,-48.2038C702.5204,-52.2627 686.0368,-58.7399 672.7715,-69 572.1868,-146.7979 525.4459,-301.3478 509.8887,-364.8039"/>
<polygon fill="none" stroke="#000000" points="506.4035,-364.3316 507.4974,-374.8698 513.214,-365.9496 506.4035,-364.3316"/>
</g>
<!-- \\FortAwesome\\ApiResponseException -->
<g id="node13" class="node">
<title>\\FortAwesome\\ApiResponseException</title>
<polygon fill="none" stroke="#000000" points="863.7108,-654 715.6678,-654 715.6678,-618 863.7108,-618 863.7108,-654"/>
<text text-anchor="middle" x="789.6893" y="-632.7" font-family="Courier,monospace" font-size="11.00" fill="#000000">ApiResponseException</text>
</g>
<!-- \\FortAwesome\\ApiResponseException&#45;&gt;\\FortAwesome\\FontAwesome_ServerException -->
<g id="edge12" class="edge">
<title>\\FortAwesome\\ApiResponseException&#45;&gt;\\FortAwesome\\FontAwesome_ServerException</title>
<path fill="none" stroke="#000000" d="M715.5391,-626.8511C700.6214,-622.8687 685.6015,-617.1649 672.7715,-609 597.1853,-560.8975 541.3665,-466.8524 517.0792,-420.3605"/>
<polygon fill="none" stroke="#000000" points="520.0567,-418.4964 512.3793,-411.1951 513.8278,-421.6905 520.0567,-418.4964"/>
</g>
<!-- \\FortAwesome\\ReleaseProviderStorageException -->
<g id="node14" class="node">
<title>\\FortAwesome\\ReleaseProviderStorageException</title>
<polygon fill="none" stroke="#000000" points="899.8229,-600 679.5557,-600 679.5557,-564 899.8229,-564 899.8229,-600"/>
<text text-anchor="middle" x="789.6893" y="-578.7" font-family="Courier,monospace" font-size="11.00" fill="#000000">ReleaseProviderStorageException</text>
</g>
<!-- \\FortAwesome\\ReleaseProviderStorageException&#45;&gt;\\FortAwesome\\FontAwesome_ServerException -->
<g id="edge13" class="edge">
<title>\\FortAwesome\\ReleaseProviderStorageException&#45;&gt;\\FortAwesome\\FontAwesome_ServerException</title>
<path fill="none" stroke="#000000" d="M692.469,-563.8992C685.6414,-561.3165 679.0029,-558.3674 672.7715,-555 609.0266,-520.553 552.0773,-455.5583 523.354,-419.2406"/>
<polygon fill="none" stroke="#000000" points="525.9091,-416.8253 517.0011,-411.0894 520.3879,-421.1284 525.9091,-416.8253"/>
</g>
<!-- \\FortAwesome\\ReleaseMetadataMissingException -->
<g id="node15" class="node">
<title>\\FortAwesome\\ReleaseMetadataMissingException</title>
<polygon fill="none" stroke="#000000" points="899.8229,-546 679.5557,-546 679.5557,-510 899.8229,-510 899.8229,-546"/>
<text text-anchor="middle" x="789.6893" y="-524.7" font-family="Courier,monospace" font-size="11.00" fill="#000000">ReleaseMetadataMissingException</text>
</g>
<!-- \\FortAwesome\\ReleaseMetadataMissingException&#45;&gt;\\FortAwesome\\FontAwesome_ServerException -->
<g id="edge14" class="edge">
<title>\\FortAwesome\\ReleaseMetadataMissingException&#45;&gt;\\FortAwesome\\FontAwesome_ServerException</title>
<path fill="none" stroke="#000000" d="M697.7812,-509.9499C689.2016,-507.3199 680.7425,-504.3479 672.7715,-501 620.8802,-479.2047 567.1296,-441.9041 534.5344,-417.35"/>
<polygon fill="none" stroke="#000000" points="536.3953,-414.3678 526.3193,-411.0929 532.1539,-419.9365 536.3953,-414.3678"/>
</g>
<!-- \\FortAwesome\\ConfigCorruptionException -->
<g id="node16" class="node">
<title>\\FortAwesome\\ConfigCorruptionException</title>
<polygon fill="none" stroke="#000000" points="880.2161,-492 699.1624,-492 699.1624,-456 880.2161,-456 880.2161,-492"/>
<text text-anchor="middle" x="789.6893" y="-470.7" font-family="Courier,monospace" font-size="11.00" fill="#000000">ConfigCorruptionException</text>
</g>
<!-- \\FortAwesome\\ConfigCorruptionException&#45;&gt;\\FortAwesome\\FontAwesome_ServerException -->
<g id="edge15" class="edge">
<title>\\FortAwesome\\ConfigCorruptionException&#45;&gt;\\FortAwesome\\FontAwesome_ServerException</title>
<path fill="none" stroke="#000000" d="M707.7067,-455.9676C695.9438,-453.1192 684.0212,-450.0894 672.7715,-447 637.084,-437.1994 597.668,-424.7122 565.8729,-414.2149"/>
<polygon fill="none" stroke="#000000" points="566.8561,-410.8536 556.2627,-411.0262 564.6516,-417.4974 566.8561,-410.8536"/>
</g>
<!-- \\FortAwesome\\ConflictDetectionSchemaException -->
<g id="node17" class="node">
<title>\\FortAwesome\\ConflictDetectionSchemaException</title>
<polygon fill="none" stroke="#000000" points="903.4238,-870 675.9548,-870 675.9548,-834 903.4238,-834 903.4238,-870"/>
<text text-anchor="middle" x="789.6893" y="-848.7" font-family="Courier,monospace" font-size="11.00" fill="#000000">ConflictDetectionSchemaException</text>
</g>
<!-- \\FortAwesome\\ConflictDetectionSchemaException&#45;&gt;\\FortAwesome\\FontAwesome_ClientException -->
<g id="edge16" class="edge">
<title>\\FortAwesome\\ConflictDetectionSchemaException&#45;&gt;\\FortAwesome\\FontAwesome_ClientException</title>
<path fill="none" stroke="#000000" d="M694.5808,-833.992C687.0501,-831.38 679.6895,-828.3993 672.7715,-825 638.2512,-808.0378 637.8122,-787.3224 601.1259,-766.7977"/>
<polygon fill="none" stroke="#000000" points="602.6387,-763.6397 592.1497,-762.1458 599.4178,-769.8547 602.6387,-763.6397"/>
</g>
<!-- \\FortAwesome\\ConflictDetectionStorageException -->
<g id="node18" class="node">
<title>\\FortAwesome\\ConflictDetectionStorageException</title>
<polygon fill="none" stroke="#000000" points="906.5248,-438 672.8538,-438 672.8538,-402 906.5248,-402 906.5248,-438"/>
<text text-anchor="middle" x="789.6893" y="-416.7" font-family="Courier,monospace" font-size="11.00" fill="#000000">ConflictDetectionStorageException</text>
</g>
<!-- \\FortAwesome\\ConflictDetectionStorageException&#45;&gt;\\FortAwesome\\FontAwesome_ServerException -->
<g id="edge17" class="edge">
<title>\\FortAwesome\\ConflictDetectionStorageException&#45;&gt;\\FortAwesome\\FontAwesome_ServerException</title>
<path fill="none" stroke="#000000" d="M672.5237,-408.9402C652.1985,-407.0216 631.1526,-405.0349 611.1027,-403.1423"/>
<polygon fill="none" stroke="#000000" points="611.3187,-399.6472 601.034,-402.1919 610.6608,-406.6163 611.3187,-399.6472"/>
</g>
<!-- \\FortAwesome\\ClientPreferencesSchemaException -->
<g id="node19" class="node">
<title>\\FortAwesome\\ClientPreferencesSchemaException</title>
<polygon fill="none" stroke="#000000" points="903.4238,-384 675.9548,-384 675.9548,-348 903.4238,-348 903.4238,-384"/>
<text text-anchor="middle" x="789.6893" y="-362.7" font-family="Courier,monospace" font-size="11.00" fill="#000000">ClientPreferencesSchemaException</text>
</g>
<!-- \\FortAwesome\\ClientPreferencesSchemaException&#45;&gt;\\FortAwesome\\FontAwesome_ServerException -->
<g id="edge18" class="edge">
<title>\\FortAwesome\\ClientPreferencesSchemaException&#45;&gt;\\FortAwesome\\FontAwesome_ServerException</title>
<path fill="none" stroke="#000000" d="M675.8199,-376.7487C654.4357,-378.7673 632.1436,-380.8715 610.9673,-382.8705"/>
<polygon fill="none" stroke="#000000" points="610.6249,-379.3871 600.9981,-383.8115 611.2828,-386.3561 610.6249,-379.3871"/>
</g>
<!-- \\FortAwesome\\FontAwesome -->
<g id="node20" class="node">
<title>\\FortAwesome\\FontAwesome</title>
<polygon fill="none" stroke="#000000" points="833.8019,-114 745.5766,-114 745.5766,-78 833.8019,-78 833.8019,-114"/>
<text text-anchor="middle" x="789.6893" y="-92.7" font-family="Courier,monospace" font-size="11.00" fill="#000000">FontAwesome</text>
</g>
<!-- \\FortAwesome\\FontAwesome_API_Controller -->
<g id="node21" class="node">
<title>\\FortAwesome\\FontAwesome_API_Controller</title>
<polygon fill="none" stroke="#000000" points="883.3176,-924 696.061,-924 696.061,-888 883.3176,-888 883.3176,-924"/>
<text text-anchor="middle" x="789.6893" y="-902.7" font-family="Courier,monospace" font-size="11.00" fill="#000000">FontAwesome_API_Controller</text>
</g>
<!-- WP_REST_Controller -->
<g id="node23" class="node">
<title>WP_REST_Controller</title>
<ellipse fill="none" stroke="#000000" cx="503.657" cy="-1031" rx="90.3723" ry="18"/>
<text text-anchor="middle" x="503.657" y="-1026.8" font-family="Times,serif" font-size="14.00" fill="#c0c0c0">WP_REST_Controller</text>
</g>
<!-- \\FortAwesome\\FontAwesome_API_Controller&#45;&gt;WP_REST_Controller -->
<g id="edge19" class="edge">
<title>\\FortAwesome\\FontAwesome_API_Controller&#45;&gt;WP_REST_Controller</title>
<path fill="none" stroke="#000000" d="M695.8903,-922.3903C687.8314,-925.3576 680.0044,-928.8618 672.7715,-933 632.3856,-956.1066 641.2056,-985.9778 600.7715,-1009 595.7189,-1011.8768 590.3177,-1014.3775 584.7467,-1016.5512"/>
<polygon fill="none" stroke="#000000" points="583.5051,-1013.2777 575.2423,-1019.9093 585.8371,-1019.8779 583.5051,-1013.2777"/>
</g>
</g>
</svg>
