<?xml version="1.0" encoding="UTF-8" standalone="no"?>
<!DOCTYPE svg PUBLIC "-//W3C//DTD SVG 1.1//EN"
 "http://www.w3.org/Graphics/SVG/1.1/DTD/svg11.dtd">
<!-- Generated by graphviz version 2.40.1 (20161225.0304)
 -->
<!-- Title: G Pages: 1 -->
<svg width="191pt" height="184pt"
 viewBox="0.00 0.00 190.82 184.00" xmlns="http://www.w3.org/2000/svg" xmlns:xlink="http://www.w3.org/1999/xlink">
<g id="graph0" class="graph" transform="scale(1 1) rotate(0) translate(4 180)">
<title>G</title>
<polygon fill="#ffffff" stroke="transparent" points="-4,4 -4,-180 186.8193,-180 186.8193,4 -4,4"/>
<g id="clust1" class="cluster">
<title>cluster_Global</title>
<path fill="none" stroke="#c0c0c0" d="M20,-8C20,-8 162.8193,-8 162.8193,-8 168.8193,-8 174.8193,-14 174.8193,-20 174.8193,-20 174.8193,-156 174.8193,-156 174.8193,-162 168.8193,-168 162.8193,-168 162.8193,-168 20,-168 20,-168 14,-168 8,-162 8,-156 8,-156 8,-20 8,-20 8,-14 14,-8 20,-8"/>
<text text-anchor="middle" x="91.4097" y="-155.2" font-family="Times,serif" font-size="11.00" fill="#c0c0c0">Global</text>
</g>
<g id="clust2" class="cluster">
<title>cluster_\FortAwesome</title>
<path fill="none" stroke="#c0c0c0" d="M28,-16C28,-16 154.8193,-16 154.8193,-16 160.8193,-16 166.8193,-22 166.8193,-28 166.8193,-28 166.8193,-129 166.8193,-129 166.8193,-135 160.8193,-141 154.8193,-141 154.8193,-141 28,-141 28,-141 22,-141 16,-135 16,-129 16,-129 16,-28 16,-28 16,-22 22,-16 28,-16"/>
<text text-anchor="middle" x="91.4097" y="-128.2" font-family="Times,serif" font-size="11.00" fill="#c0c0c0">FortAwesome</text>
</g>
<!-- \\FortAwesome\\FontAwesome_Loader -->
<g id="node1" class="node">
<title>\\FortAwesome\\FontAwesome_Loader</title>
<polygon fill="none" stroke="#000000" points="158.7291,-114 24.0902,-114 24.0902,-78 158.7291,-78 158.7291,-114"/>
<text text-anchor="middle" x="91.4097" y="-92.7" font-family="Courier,monospace" font-size="11.00" fill="#000000">FontAwesome_Loader</text>
</g>
<!-- \\FortAwesome\\FontAwesome -->
<g id="node2" class="node">
<title>\\FortAwesome\\FontAwesome</title>
<polygon fill="none" stroke="#000000" points="135.5223,-60 47.297,-60 47.297,-24 135.5223,-24 135.5223,-60"/>
<text text-anchor="middle" x="91.4097" y="-38.7" font-family="Courier,monospace" font-size="11.00" fill="#000000">FontAwesome</text>
</g>
</g>
</svg>
