<svg height="256" viewBox="0 0 256 256" width="256" xmlns="http://www.w3.org/2000/svg"><g fill="none" fill-rule="evenodd"><path d="m0 0h256v256h-256z" fill="#318dde"/><path d="m183.192026 153.701359c0 .833068-.249921 1.499525-.749763 1.999367s-1.33291.999684-2.499209 1.499525c-4.331961 1.832752-7.997469 3.165666-10.99652 3.998735-4.331961 1.166299-8.330696 1.749446-11.996204 1.749446-2.499209 0-4.998418-.333226-7.497627-.999683-1.499525-.333227-3.665508-1.08299-6.497943-2.249289-3.165667-1.33291-5.664876-2.249288-7.497628-2.74913-2.999051-.666457-6.081407-.999683-9.247073-.999683-8.330696 0-17.994306 2.415903-28.9908257 7.247706l-1.4995254.499842v19.493831c0 2.665824-.8330684 4.790152-2.4992091 6.372983s-3.6655079 2.374249-5.9981018 2.374249-4.3319611-.833069-5.9981018-2.49921c-1.6661407-1.66614-2.4992091-3.748813-2.4992091-6.248022v-93.7203408c-1.832752-1.3329103-3.2489718-2.9573962-4.2486554-4.8734577-.9996837-1.9160616-1.4995255-4.0403893-1.4995255-6.3729832 0-3.8321193 1.4162198-7.1644006 4.2486555-9.9968363s6.2063679-4.2486555 10.1217968-4.2486555c3.9154288 0 7.289361 1.4162198 10.1217967 4.2486555 2.8324358 2.8324357 4.2486558 6.164717 4.2486558 9.9968363 0 4.831803-1.9160619 8.5806166-5.7481812 11.2464409v7.997469l.9996836-.2499209c10.3300626-4.6651915 19.5771366-6.9977854 27.7412206-6.9977854 4.331961 0 8.497311.4998418 12.496046 1.4995254 2.499209.6664571 5.664875 1.6661407 9.496994 2.9990509 4.498577 1.6661407 7.747548 2.4992091 9.746916 2.4992091 2.832435 0 5.998101-.5831475 9.496994-1.7494463 2.165983-.6664571 4.998418-1.7494464 8.497311-3.2489718 2.832436-1.3329103 4.498576-1.9993673 4.998418-1.9993673.999684 0 1.874407.3332266 2.62417.9996836.749762.6664571 1.124644 1.4995255 1.124644 2.4992091z" fill="#fff"/></g></svg>